<?xml version="1.0" encoding="UTF-8" standalone="no"?>
<!-- Created with Inkscape (http://www.inkscape.org/) -->

<svg
   xmlns:dc="http://purl.org/dc/elements/1.1/"
   xmlns:cc="http://creativecommons.org/ns#"
   xmlns:rdf="http://www.w3.org/1999/02/22-rdf-syntax-ns#"
   xmlns:svg="http://www.w3.org/2000/svg"
   xmlns="http://www.w3.org/2000/svg"
   xmlns:xlink="http://www.w3.org/1999/xlink"
   xmlns:sodipodi="http://sodipodi.sourceforge.net/DTD/sodipodi-0.dtd"
   xmlns:inkscape="http://www.inkscape.org/namespaces/inkscape"
   id="svg2"
   sodipodi:docname="buggy.svg"
   inkscape:export-filename="C:\Documents and Settings\Fastallow\Desktop\ATV.png"
   viewBox="0 0 220.63955 211.22844"
   inkscape:export-xdpi="111.84188"
   version="1.1"
   inkscape:export-ydpi="111.84188"
   inkscape:version="0.92.3 (2405546, 2018-03-11)"
   width="169.72273"
   height="162.48341">
  <title
     id="title6605">ATV</title>
  <defs
     id="defs4">
    <linearGradient
       id="linearGradient6832"
       inkscape:collect="always">
      <stop
         id="stop6834"
         style="stop-color:#666666"
         offset="0" />
      <stop
         id="stop6836"
         style="stop-color:#2d2d2d"
         offset="1" />
    </linearGradient>
    <linearGradient
       id="linearGradient4037"
       inkscape:collect="always">
      <stop
         id="stop4039"
         style="stop-color:#999999"
         offset="0" />
      <stop
         id="stop4041"
         style="stop-color:#999999;stop-opacity:0"
         offset="1" />
    </linearGradient>
    <linearGradient
       id="linearGradient3851"
       inkscape:collect="always">
      <stop
         id="stop3853"
         style="stop-color:#0e232e"
         offset="0" />
      <stop
         id="stop3855"
         style="stop-color:#0e232e;stop-opacity:0"
         offset="1" />
    </linearGradient>
    <linearGradient
       id="linearGradient3927"
       inkscape:collect="always">
      <stop
         id="stop3929"
         style="stop-color:#999999"
         offset="0" />
      <stop
         id="stop3931"
         style="stop-color:#2d2d2d"
         offset="1" />
    </linearGradient>
    <linearGradient
       id="linearGradient3873"
       inkscape:collect="always">
      <stop
         id="stop3875"
         style="stop-color:#999999"
         offset="0" />
      <stop
         id="stop3877"
         style="stop-color:#666666"
         offset="1" />
    </linearGradient>
    <linearGradient
       id="linearGradient3865"
       inkscape:collect="always">
      <stop
         id="stop3867"
         style="stop-color:#ffffff"
         offset="0" />
      <stop
         id="stop3869"
         style="stop-color:#cccccc"
         offset="1" />
    </linearGradient>
    <filter
       id="filter4049"
       inkscape:collect="always"
       style="color-interpolation-filters:sRGB">
      <feGaussianBlur
         id="feGaussianBlur4051"
         stdDeviation="2.2419255"
         inkscape:collect="always" />
    </filter>
    <linearGradient
       id="linearGradient4522"
       y2="455.98999"
       xlink:href="#linearGradient3927"
       gradientUnits="userSpaceOnUse"
       x2="-261.82999"
       y1="443.95001"
       x1="-235.36"
       inkscape:collect="always" />
    <linearGradient
       id="linearGradient4530"
       y2="293.07999"
       xlink:href="#linearGradient3865"
       gradientUnits="userSpaceOnUse"
       x2="-742.85999"
       y1="275.22"
       x1="-749.28998"
       inkscape:collect="always" />
    <linearGradient
       id="linearGradient4532"
       y2="300.22"
       xlink:href="#linearGradient3873"
       gradientUnits="userSpaceOnUse"
       x2="-735"
       y1="300.92999"
       x1="-747.14001"
       inkscape:collect="always" />
    <linearGradient
       id="linearGradient4534"
       y2="323.79001"
       xlink:href="#linearGradient4037"
       gradientUnits="userSpaceOnUse"
       x2="-728.57001"
       y1="328.79001"
       x1="-737.85999"
       inkscape:collect="always" />
    <linearGradient
       id="linearGradient4759"
       y2="602.35999"
       gradientUnits="userSpaceOnUse"
       x2="57.143002"
       gradientTransform="matrix(0.31237,0,0,0.35026,-488.91,253.67)"
       y1="709.51001"
       x1="192.86"
       inkscape:collect="always">
      <stop
         id="stop3845"
         style="stop-color:#2d2d2d"
         offset="0" />
      <stop
         id="stop3847"
         style="stop-color:#666666"
         offset="1" />
    </linearGradient>
    <linearGradient
       id="linearGradient4761"
       y2="526.59003"
       xlink:href="#linearGradient3851"
       gradientUnits="userSpaceOnUse"
       x2="-793.71997"
       y1="481.98999"
       x1="-808.42999"
       inkscape:collect="always" />
    <radialGradient
       id="radialGradient4767"
       gradientUnits="userSpaceOnUse"
       cy="817.98999"
       cx="326.81"
       gradientTransform="matrix(-0.6777,0.42107,-0.66652,-1.1368,1093.5,1610.1)"
       r="55.970001"
       inkscape:collect="always">
      <stop
         id="stop3892"
         style="stop-color:#666666"
         offset="0" />
      <stop
         id="stop3894"
         style="stop-color:#0d0000"
         offset="1" />
    </radialGradient>
    <linearGradient
       id="linearGradient4769"
       y2="467.53"
       xlink:href="#linearGradient4037"
       gradientUnits="userSpaceOnUse"
       x2="-770.45001"
       y1="455.38"
       x1="-792.42999"
       inkscape:collect="always" />
    <radialGradient
       id="radialGradient6540"
       gradientUnits="userSpaceOnUse"
       cy="350.13"
       cx="-640.01001"
       gradientTransform="matrix(0.097026,-0.25098,0.33378,0.12142,46.844,666.81)"
       r="26.281"
       inkscape:collect="always">
      <stop
         id="stop4129"
         style="stop-color:#ffffff"
         offset="0" />
      <stop
         id="stop4131"
         style="stop-color:#666666"
         offset="1" />
    </radialGradient>
    <radialGradient
       id="radialGradient6548"
       gradientUnits="userSpaceOnUse"
       cy="340.04999"
       cx="-470.84"
       gradientTransform="matrix(-1.3515,0.17563,-0.013523,-0.09791,-449.79,990.07)"
       r="65.723"
       inkscape:collect="always">
      <stop
         id="stop4121"
         style="stop-color:#ffffff"
         offset="0" />
      <stop
         id="stop4123"
         style="stop-color:#2d2d2d"
         offset="1" />
    </radialGradient>
    <radialGradient
       id="radialGradient6553"
       gradientUnits="userSpaceOnUse"
       cy="357.04001"
       cx="-409.29001"
       gradientTransform="matrix(-0.25096,0.1558,-0.14547,-0.22049,160.38,1024.4)"
       r="67.566002"
       inkscape:collect="always">
      <stop
         id="stop4003"
         style="stop-color:#ffffff"
         offset="0" />
      <stop
         id="stop4005"
         style="stop-color:#0084c8"
         offset="1" />
    </radialGradient>
    <radialGradient
       id="radialGradient6556"
       gradientUnits="userSpaceOnUse"
       cy="411.67001"
       cx="-554.28998"
       gradientTransform="matrix(-0.084312,0.56227,-0.43099,-0.06081,273.01,1236.7)"
       r="32.179001"
       inkscape:collect="always">
      <stop
         id="stop3995"
         style="stop-color:#ffffff"
         offset="0" />
      <stop
         id="stop3997"
         style="stop-color:#19aeff"
         offset="1" />
    </radialGradient>
    <radialGradient
       id="radialGradient6559"
       gradientUnits="userSpaceOnUse"
       cy="450.60001"
       cx="40.119999"
       gradientTransform="matrix(-0.49351,0.16736,-0.081024,-0.22482,182.35,979.76)"
       r="84.523003"
       inkscape:collect="always">
      <stop
         id="stop3987"
         style="stop-color:#19aeff"
         offset="0" />
      <stop
         id="stop3989"
         style="stop-color:#005c94"
         offset="1" />
    </radialGradient>
    <radialGradient
       id="radialGradient6562"
       gradientUnits="userSpaceOnUse"
       cy="354.79999"
       cx="-644.48999"
       gradientTransform="matrix(-0.96004,1.0461,-0.26193,-0.22618,-426.31,1633.9)"
       r="63.896"
       inkscape:collect="always">
      <stop
         id="stop4107"
         style="stop-color:#cccccc"
         offset="0" />
      <stop
         id="stop4109"
         style="stop-color:#2d2d2d"
         offset="1" />
    </radialGradient>
    <radialGradient
       id="radialGradient6806"
       gradientUnits="userSpaceOnUse"
       cy="446.26999"
       cx="379.92999"
       gradientTransform="matrix(-0.44971,-0.23094,0.24749,-0.45347,217.45,1157.8)"
       r="9.7763004"
       inkscape:collect="always">
      <stop
         id="stop6802"
         style="stop-color:#0084c8"
         offset="0" />
      <stop
         id="stop6804"
         style="stop-color:#19aeff"
         offset="1" />
    </radialGradient>
    <linearGradient
       id="linearGradient6830"
       y2="527.82001"
       gradientUnits="userSpaceOnUse"
       x2="325.19"
       gradientTransform="matrix(0.9685,0,0,0.87219,-209.53,483)"
       y1="506.03"
       x1="317.01999"
       inkscape:collect="always">
      <stop
         id="stop6826"
         style="stop-color:#999999"
         offset="0" />
      <stop
         id="stop6828"
         style="stop-color:#2d2d2d"
         offset="1" />
    </linearGradient>
    <linearGradient
       id="linearGradient6838"
       y2="491.85999"
       xlink:href="#linearGradient6832"
       gradientUnits="userSpaceOnUse"
       x2="-778.23999"
       y1="457.78"
       x1="-795.72998"
       inkscape:collect="always" />
    <linearGradient
       id="linearGradient6846"
       y2="504.94"
       gradientUnits="userSpaceOnUse"
       x2="423.78"
       gradientTransform="matrix(1.0388,0,0,1.0445,-239.52,401.73)"
       y1="488.60001"
       x1="407.98001"
       inkscape:collect="always">
      <stop
         id="stop6842"
         style="stop-color:#666666"
         offset="0" />
      <stop
         id="stop6844"
         style="stop-color:#2d2d2d"
         offset="1" />
    </linearGradient>
    <linearGradient
       id="linearGradient6858"
       y2="507.35999"
       gradientUnits="userSpaceOnUse"
       x2="278.85999"
       gradientTransform="matrix(0.94957,0,0,0.9211,-203.73,458.77)"
       y1="494.64999"
       x1="282.70999"
       inkscape:collect="always">
      <stop
         id="stop6854"
         style="stop-color:#999999"
         offset="0" />
      <stop
         id="stop6856"
         style="stop-color:#2d2d2d"
         offset="1" />
    </linearGradient>
    <linearGradient
       id="linearGradient6866"
       y2="430.32999"
       gradientUnits="userSpaceOnUse"
       x2="306.59"
       gradientTransform="matrix(0.94957,0,0,0.9211,-203.73,458.77)"
       y1="426.85999"
       x1="297.73001"
       inkscape:collect="always">
      <stop
         id="stop6862"
         style="stop-color:#19aeff"
         offset="0" />
      <stop
         id="stop6864"
         style="stop-color:#005c94"
         offset="1" />
    </linearGradient>
    <linearGradient
       inkscape:collect="always"
       xlink:href="#linearGradient3851"
       id="linearGradient980"
       gradientUnits="userSpaceOnUse"
       x1="-808.42999"
       y1="481.98999"
       x2="-793.71997"
       y2="526.59003" />
    <linearGradient
       inkscape:collect="always"
       xlink:href="#linearGradient3851"
       id="linearGradient982"
       gradientUnits="userSpaceOnUse"
       x1="-808.42999"
       y1="481.98999"
       x2="-793.71997"
       y2="526.59003" />
    <linearGradient
       inkscape:collect="always"
       xlink:href="#linearGradient4037"
       id="linearGradient984"
       gradientUnits="userSpaceOnUse"
       x1="-792.42999"
       y1="455.38"
       x2="-770.45001"
       y2="467.53" />
    <linearGradient
       inkscape:collect="always"
       xlink:href="#linearGradient4037"
       id="linearGradient986"
       gradientUnits="userSpaceOnUse"
       x1="-792.42999"
       y1="455.38"
       x2="-770.45001"
       y2="467.53" />
    <linearGradient
       inkscape:collect="always"
       xlink:href="#linearGradient6832"
       id="linearGradient988"
       gradientUnits="userSpaceOnUse"
       x1="-795.72998"
       y1="457.78"
       x2="-778.23999"
       y2="491.85999" />
    <linearGradient
       inkscape:collect="always"
       xlink:href="#linearGradient6832"
       id="linearGradient990"
       gradientUnits="userSpaceOnUse"
       x1="-795.72998"
       y1="457.78"
       x2="-778.23999"
       y2="491.85999" />
    <linearGradient
       inkscape:collect="always"
       xlink:href="#linearGradient3927"
       id="linearGradient992"
       gradientUnits="userSpaceOnUse"
       x1="-235.36"
       y1="443.95001"
       x2="-261.82999"
       y2="455.98999" />
    <linearGradient
       inkscape:collect="always"
       xlink:href="#linearGradient3927"
       id="linearGradient994"
       gradientUnits="userSpaceOnUse"
       x1="-235.36"
       y1="443.95001"
       x2="-261.82999"
       y2="455.98999" />
    <linearGradient
       inkscape:collect="always"
       xlink:href="#linearGradient3927"
       id="linearGradient996"
       gradientUnits="userSpaceOnUse"
       x1="-235.36"
       y1="443.95001"
       x2="-261.82999"
       y2="455.98999" />
    <linearGradient
       inkscape:collect="always"
       xlink:href="#linearGradient3865"
       id="linearGradient998"
       gradientUnits="userSpaceOnUse"
       x1="-749.28998"
       y1="275.22"
       x2="-742.85999"
       y2="293.07999" />
    <linearGradient
       inkscape:collect="always"
       xlink:href="#linearGradient3873"
       id="linearGradient1000"
       gradientUnits="userSpaceOnUse"
       x1="-747.14001"
       y1="300.92999"
       x2="-735"
       y2="300.22" />
    <linearGradient
       inkscape:collect="always"
       xlink:href="#linearGradient4037"
       id="linearGradient1002"
       gradientUnits="userSpaceOnUse"
       x1="-737.85999"
       y1="328.79001"
       x2="-728.57001"
       y2="323.79001" />
    <linearGradient
       inkscape:collect="always"
       xlink:href="#linearGradient3927"
       id="linearGradient1004"
       gradientUnits="userSpaceOnUse"
       x1="-235.36"
       y1="443.95001"
       x2="-261.82999"
       y2="455.98999" />
    <linearGradient
       inkscape:collect="always"
       xlink:href="#linearGradient3927"
       id="linearGradient1006"
       gradientUnits="userSpaceOnUse"
       x1="-235.36"
       y1="443.95001"
       x2="-261.82999"
       y2="455.98999" />
  </defs>
  <sodipodi:namedview
     id="base"
     bordercolor="#666666"
     inkscape:pageshadow="2"
     inkscape:window-y="-8"
     pagecolor="#ffffff"
     inkscape:window-height="1017"
     inkscape:window-maximized="1"
     inkscape:zoom="0.66705581"
     inkscape:window-x="1672"
     showgrid="false"
     borderopacity="1.0"
     inkscape:current-layer="layer1"
     inkscape:cx="-120.10431"
     inkscape:cy="46.125173"
     inkscape:window-width="1920"
     inkscape:pageopacity="0.0"
     inkscape:document-units="px"
     fit-margin-top="0"
     fit-margin-left="0"
     fit-margin-right="0"
     fit-margin-bottom="0"
     scale-x="1.3" />
  <g
     id="layer1"
     inkscape:label="Layer 1"
     inkscape:groupmode="layer"
     transform="translate(-15.73995,-816.9965)">
    <ellipse
       style="fill:#ee1500;fill-opacity:0.60301507;stroke:#0000ff;stroke-width:2.09257936;stroke-linejoin:round;stroke-miterlimit:4;stroke-dasharray:none;stroke-opacity:1"
       id="path978"
       cx="126.05972"
       cy="922.61072"
       rx="109.27348"
       ry="104.56793" />
    <ellipse
       id="path6872"
       style="opacity:0;stroke-width:1.09899998"
       transform="matrix(0.89329,0,0,0.9917,-181.46,1219.3)"
       cx="346.42978"
       cy="-297.41614"
       rx="142.71164"
       ry="128.54942" />
    <path
       id="path6774"
       d="m 83.46,853.15 a 1.5932,1.4526 0 1 0 0.26707,2.8949 c 0,0 2.356,-0.0634 5.4007,0.16232 3.0447,0.2257 6.7574,0.77175 9.0802,1.7857 1.6194,0.70688 3.0132,0.89513 3.8873,1.3798 1.0047,0.55716 2.2657,2.5178 3.0267,4.3559 0.76101,1.8381 1.1573,3.4631 1.1573,3.4631 l 0.38575,1.6504 1.7211,-0.59522 c 0,0 4.2498,-1.4923 9.6144,-2.9761 5.3646,-1.4837 11.902,-2.9376 16.083,-2.949 3.0197,-0.009 7.9069,1.0307 11.899,2.1103 3.9924,1.0796 7.1514,2.1644 7.1514,2.1644 a 1.5873,1.4472 0 1 0 1.0979,-2.7055 c 0,0 -3.2496,-1.1072 -7.3592,-2.2185 -4.1096,-1.1113 -9.0139,-2.256 -12.79,-2.2456 -4.9377,0.0135 -11.522,1.5682 -17.003,3.0843 -4.5888,1.2692 -7.109,2.1639 -8.2197,2.5432 -0.20119,-0.72347 -0.22373,-1.1024 -0.74184,-2.3538 -0.85856,-2.0738 -2.0443,-4.5045 -4.3621,-5.7898 -1.6065,-0.89087 -3.1478,-1.0628 -4.184,-1.5151 -3.0436,-1.3285 -6.9553,-1.8444 -10.178,-2.0833 -3.223,-0.23892 -5.7568,-0.16234 -5.7568,-0.16234 a 1.5873,1.4472 0 0 0 -0.17804,0 z"
       style="color:#000000;text-indent:0;text-transform:none;fill:#2d2d2d"
       inkscape:connector-curvature="0" />
    <g
       id="g4739"
       transform="matrix(0.47478,0,0,0.46055,365.83,695.52)">
      <path
         id="path4687"
         d="m -435.14,418.12 c -23.044,0 -41.721,19.5 -41.721,43.542 0,24.042 18.678,43.531 41.721,43.531 23.044,0 41.731,-19.489 41.731,-43.531 0,-24.042 -18.687,-43.542 -41.731,-43.542 z m 10.621,24.869 c 2.7509,0.0265 5.4614,0.80882 7.9167,2.4299 8.7302,5.764 11.008,19.946 5.0858,31.677 -5.9224,11.731 -17.802,16.567 -26.532,10.803 -8.7302,-5.764 -11.008,-19.946 -5.0858,-31.677 4.2567,-8.4314 11.585,-13.301 18.615,-13.233 z"
         style="fill:url(#linearGradient4759);stroke:#1a1a1a;stroke-width:1.58710003;stroke-linecap:round;stroke-linejoin:bevel"
         inkscape:connector-curvature="0" />
      <g
         id="g4689"
         style="fill:url(#linearGradient4761);stroke:#1a1a1a"
         transform="matrix(0.78892,0,0,0.67308,168.51,120.22)">
        <path
           id="path4691"
           style="fill:url(#linearGradient980);stroke-width:0"
           inkscape:connector-curvature="0"
           d="m -766.29,443.57 c -29.268,0 -52.994,28.294 -52.994,63.173 0,34.879 23.726,63.14 52.994,63.14 3.4186,0 6.7532,-0.40747 9.9916,-1.1445 -18.154,-3.3765 -32.266,-28.842 -32.266,-59.772 0,-33.228 16.289,-60.164 36.378,-60.164 20.089,0 36.378,26.936 36.378,60.164 0,10.719 -1.6941,20.777 -4.6646,29.494 4.5579,-9.3257 7.1762,-20.147 7.1762,-31.717 0,-34.879 -23.726,-63.173 -52.994,-63.173 z" />
        <ellipse
           id="path4693"
           style="fill:url(#linearGradient982);stroke:#1a1a1a;stroke-width:3.27719998;stroke-linecap:round;stroke-linejoin:bevel;stroke-dasharray:6.55430424, 6.55430424"
           transform="matrix(1.1554,0,0,1.0338,109.28,-17.876)"
           cx="-758.57141"
           cy="507.36218"
           rx="45.714287"
           ry="62.142857" />
      </g>
      <ellipse
         id="path4695"
         style="fill:url(#radialGradient4767);stroke:#1a1a1a;stroke-width:4.79799986;stroke-linecap:round;stroke-linejoin:bevel"
         transform="matrix(0.27708,0.17322,-0.15997,0.30002,-386.17,164.7)"
         cx="325"
         cy="818.79077"
         rx="53.57143"
         ry="70.714287" />
      <ellipse
         id="path4697"
         style="fill:#000000;stroke-width:0"
         transform="matrix(0.28247,0.092055,-0.082765,0.37568,-354.62,172.88)"
         cx="-33.57143"
         cy="753.79077"
         rx="9.2857141"
         ry="10" />
      <path
         id="path4699"
         sodipodi:r2="8.2325888"
         style="fill:#666666;stroke-width:0"
         sodipodi:type="star"
         d="m 555.42214,812.53676 c -0.54434,0.45811 -9.25507,-6.29632 -9.96737,-6.2111 -0.7123,0.0852 -7.07075,8.73193 -7.73088,8.48113 -0.66013,-0.25081 0.67421,-11.37009 0.22362,-11.93049 -0.45058,-0.56041 -11.71138,-1.33392 -11.8301,-2.04486 -0.11872,-0.71093 10.05326,-5.21471 10.3027,-5.89034 0.24945,-0.67563 -3.83721,-10.49494 -3.27239,-10.92034 0.56481,-0.42541 9.27238,5.79412 9.98208,5.67072 0.7097,-0.12339 7.37612,-9.06105 8.04965,-8.80944 0.67352,0.25161 -0.96753,11.61998 -0.54326,12.1861 0.42427,0.56612 11.72466,1.5114 11.83098,2.21074 0.10632,0.69934 -10.1,4.73236 -10.34808,5.40873 -0.24809,0.67637 3.84739,11.39105 3.30305,11.84915 z"
         sodipodi:r1="18.294641"
         inkscape:transform-center-x="-0.0019021943"
         inkscape:transform-center-y="0.041929539"
         transform="matrix(0.14031,0.045727,-0.045581,0.2069,-466.08,263.71)"
         sodipodi:arg2="1.4196542"
         sodipodi:arg1="0.89605538"
         inkscape:randomized="-0.023"
         sodipodi:cy="798.07648"
         sodipodi:cx="544.28571"
         inkscape:rounded="0.06"
         inkscape:flatsided="false"
         sodipodi:sides="6" />
      <ellipse
         id="path4701"
         style="fill:#000000;stroke-width:0"
         transform="matrix(0.28247,0.092055,-0.082765,0.37568,-364.22,184.58)"
         cx="-33.57143"
         cy="753.79077"
         rx="9.2857141"
         ry="10" />
      <path
         id="path4703"
         style="fill:#666666;stroke-width:0"
         sodipodi:type="star"
         sodipodi:sides="6"
         inkscape:transform-center-x="-0.0018948586"
         sodipodi:r1="18.294641"
         sodipodi:r2="8.2325888"
         inkscape:transform-center-y="0.041926721"
         sodipodi:arg1="0.89605538"
         sodipodi:arg2="1.4196542"
         transform="matrix(0.14031,0.045727,-0.045581,0.2069,-475.69,275.42)"
         inkscape:randomized="-0.023"
         sodipodi:cy="798.07648"
         sodipodi:cx="544.28571"
         inkscape:rounded="0.06"
         inkscape:flatsided="false"
         d="m 555.42214,812.53676 c -0.54434,0.45811 -9.25507,-6.29632 -9.96737,-6.2111 -0.7123,0.0852 -7.07075,8.73193 -7.73088,8.48113 -0.66013,-0.25081 0.67421,-11.37009 0.22362,-11.93049 -0.45058,-0.56041 -11.71138,-1.33392 -11.8301,-2.04486 -0.11872,-0.71093 10.05326,-5.21471 10.3027,-5.89034 0.24945,-0.67563 -3.83721,-10.49494 -3.27239,-10.92034 0.56481,-0.42541 9.27238,5.79412 9.98208,5.67072 0.7097,-0.12339 7.37612,-9.06105 8.04965,-8.80944 0.67352,0.25161 -0.96753,11.61998 -0.54326,12.1861 0.42427,0.56612 11.72466,1.5114 11.83098,2.21074 0.10632,0.69934 -10.1,4.73236 -10.34808,5.40873 -0.24809,0.67637 3.84739,11.39105 3.30305,11.84915 z" />
      <ellipse
         id="path4705"
         style="fill:#000000;stroke-width:0"
         transform="matrix(0.28247,0.092055,-0.082765,0.37568,-359.85,195.33)"
         cx="-33.57143"
         cy="753.79077"
         rx="9.2857141"
         ry="10" />
      <path
         id="path4707"
         sodipodi:r2="8.2325888"
         style="fill:#666666;stroke-width:0"
         sodipodi:type="star"
         d="m 555.42214,812.53676 c -0.54434,0.45811 -9.25507,-6.29632 -9.96737,-6.2111 -0.7123,0.0852 -7.07075,8.73193 -7.73088,8.48113 -0.66013,-0.25081 0.67421,-11.37009 0.22362,-11.93049 -0.45058,-0.56041 -11.71138,-1.33392 -11.8301,-2.04486 -0.11872,-0.71093 10.05326,-5.21471 10.3027,-5.89034 0.24945,-0.67563 -3.83721,-10.49494 -3.27239,-10.92034 0.56481,-0.42541 9.27238,5.79412 9.98208,5.67072 0.7097,-0.12339 7.37612,-9.06105 8.04965,-8.80944 0.67352,0.25161 -0.96753,11.61998 -0.54326,12.1861 0.42427,0.56612 11.72466,1.5114 11.83098,2.21074 0.10632,0.69934 -10.1,4.73236 -10.34808,5.40873 -0.24809,0.67637 3.84739,11.39105 3.30305,11.84915 z"
         sodipodi:r1="18.294641"
         inkscape:transform-center-x="-0.0019247147"
         inkscape:transform-center-y="0.041912237"
         transform="matrix(0.14031,0.045727,-0.045581,0.2069,-471.31,286.17)"
         sodipodi:arg2="1.4196542"
         sodipodi:arg1="0.89605538"
         inkscape:randomized="-0.023"
         sodipodi:cy="798.07648"
         sodipodi:cx="544.28571"
         inkscape:rounded="0.06"
         inkscape:flatsided="false"
         sodipodi:sides="6" />
      <ellipse
         id="path4709"
         style="fill:#000000;stroke-width:0"
         transform="matrix(0.28247,0.092055,-0.082765,0.37568,-350.23,196.35)"
         cx="-33.57143"
         cy="753.79077"
         rx="9.2857141"
         ry="10" />
      <path
         id="path4711"
         style="fill:#666666;stroke-width:0"
         sodipodi:type="star"
         sodipodi:sides="6"
         inkscape:transform-center-x="-0.0018559189"
         sodipodi:r1="18.294641"
         sodipodi:r2="8.2325888"
         inkscape:transform-center-y="0.041907094"
         sodipodi:arg1="0.89605538"
         sodipodi:arg2="1.4196542"
         transform="matrix(0.14031,0.045727,-0.045581,0.2069,-461.7,287.18)"
         inkscape:randomized="-0.023"
         sodipodi:cy="798.07648"
         sodipodi:cx="544.28571"
         inkscape:rounded="0.06"
         inkscape:flatsided="false"
         d="m 555.42214,812.53676 c -0.54434,0.45811 -9.25507,-6.29632 -9.96737,-6.2111 -0.7123,0.0852 -7.07075,8.73193 -7.73088,8.48113 -0.66013,-0.25081 0.67421,-11.37009 0.22362,-11.93049 -0.45058,-0.56041 -11.71138,-1.33392 -11.8301,-2.04486 -0.11872,-0.71093 10.05326,-5.21471 10.3027,-5.89034 0.24945,-0.67563 -3.83721,-10.49494 -3.27239,-10.92034 0.56481,-0.42541 9.27238,5.79412 9.98208,5.67072 0.7097,-0.12339 7.37612,-9.06105 8.04965,-8.80944 0.67352,0.25161 -0.96753,11.61998 -0.54326,12.1861 0.42427,0.56612 11.72466,1.5114 11.83098,2.21074 0.10632,0.69934 -10.1,4.73236 -10.34808,5.40873 -0.24809,0.67637 3.84739,11.39105 3.30305,11.84915 z" />
      <ellipse
         id="path4713"
         style="fill:#000000;stroke-width:0"
         transform="matrix(0.28247,0.092055,-0.082765,0.37568,-347.44,183.69)"
         cx="-33.57143"
         cy="753.79077"
         rx="9.2857141"
         ry="10" />
      <path
         id="path4715"
         sodipodi:r2="8.2325888"
         style="fill:#666666;stroke-width:0"
         sodipodi:type="star"
         d="m 555.42214,812.53676 c -0.54434,0.45811 -9.25507,-6.29632 -9.96737,-6.2111 -0.7123,0.0852 -7.07075,8.73193 -7.73088,8.48113 -0.66013,-0.25081 0.67421,-11.37009 0.22362,-11.93049 -0.45058,-0.56041 -11.71138,-1.33392 -11.8301,-2.04486 -0.11872,-0.71093 10.05326,-5.21471 10.3027,-5.89034 0.24945,-0.67563 -3.83721,-10.49494 -3.27239,-10.92034 0.56481,-0.42541 9.27238,5.79412 9.98208,5.67072 0.7097,-0.12339 7.37612,-9.06105 8.04965,-8.80944 0.67352,0.25161 -0.96753,11.61998 -0.54326,12.1861 0.42427,0.56612 11.72466,1.5114 11.83098,2.21074 0.10632,0.69934 -10.1,4.73236 -10.34808,5.40873 -0.24809,0.67637 3.84739,11.39105 3.30305,11.84915 z"
         sodipodi:r1="18.294641"
         inkscape:transform-center-x="-0.0019442509"
         inkscape:transform-center-y="0.041939644"
         transform="matrix(0.14031,0.045727,-0.045581,0.2069,-458.91,274.53)"
         sodipodi:arg2="1.4196542"
         sodipodi:arg1="0.89605538"
         inkscape:randomized="-0.023"
         sodipodi:cy="798.07648"
         sodipodi:cx="544.28571"
         inkscape:rounded="0.06"
         inkscape:flatsided="false"
         sodipodi:sides="6" />
      <g
         id="g4717"
         style="fill:url(#linearGradient4769);stroke:#1a1a1a;stroke-width:1.81649995;stroke-dasharray:1.81646894, 3.63293788;filter:url(#filter4049)"
         transform="matrix(0.74255,0,0,0.61081,130.64,152.76)">
        <path
           id="path4719"
           style="fill:url(#linearGradient984);stroke:#1a1a1a;stroke-width:1.81649995;stroke-linecap:round;stroke-linejoin:bevel;stroke-dasharray:1.81646894, 3.63293788"
           inkscape:connector-curvature="0"
           d="m -766.29,443.57 c -29.268,0 -52.994,28.294 -52.994,63.173 0,34.879 23.726,63.14 52.994,63.14 3.4186,0 6.7532,-0.40747 9.9916,-1.1445 -18.154,-3.3765 -32.266,-28.842 -32.266,-59.772 0,-33.228 16.289,-60.164 36.378,-60.164 20.089,0 36.378,26.936 36.378,60.164 0,10.719 -1.6941,20.777 -4.6646,29.494 4.5579,-9.3257 7.1762,-20.147 7.1762,-31.717 0,-34.879 -23.726,-63.173 -52.994,-63.173 z" />
        <ellipse
           id="path4721"
           style="fill:url(#linearGradient986);stroke:#1a1a1a;stroke-width:1.66209996;stroke-linecap:round;stroke-linejoin:bevel;stroke-dasharray:1.66205754, 3.32411508"
           transform="matrix(1.1554,0,0,1.0338,109.28,-17.876)"
           cx="-758.57141"
           cy="507.36218"
           rx="45.714287"
           ry="62.142857" />
      </g>
    </g>
    <path
       id="path3843"
       sodipodi:nodetypes="ccccc"
       style="fill:#19aeff;stroke:#0974b9;stroke-width:0.49981999px"
       inkscape:connector-curvature="0"
       d="m 135.51,875.86 c 8.1222,3.5277 16.244,9.1726 24.366,-1.0043 l 17.133,-4.0173 -8.7567,-2.3435 z" />
    <g
       id="g4079"
       style="fill:url(#linearGradient6838);stroke-width:0"
       transform="matrix(0.40394,0,0,0.35204,353.3,753.06)">
      <path
         id="path4081"
         style="fill:url(#linearGradient988);stroke-width:0"
         inkscape:connector-curvature="0"
         d="m -766.29,443.57 c -29.268,0 -52.994,28.294 -52.994,63.173 0,34.879 23.726,63.14 52.994,63.14 3.4186,0 6.7532,-0.40747 9.9916,-1.1445 -18.154,-3.3765 -32.266,-28.842 -32.266,-59.772 0,-33.228 16.289,-60.164 36.378,-60.164 20.089,0 36.378,26.936 36.378,60.164 0,10.719 -1.6941,20.777 -4.6646,29.494 4.5579,-9.3257 7.1762,-20.147 7.1762,-31.717 0,-34.879 -23.726,-63.173 -52.994,-63.173 z" />
      <ellipse
         id="path4083"
         style="fill:url(#linearGradient990);stroke-width:0"
         transform="matrix(1.1554,0,0,1.0338,109.28,-17.876)"
         cx="-758.57141"
         cy="507.36218"
         rx="45.714287"
         ry="62.142857" />
    </g>
    <path
       id="path3905"
       style="color:#000000;text-indent:0;text-transform:none;fill:#2d2d2d;stroke:#1a1a1a;stroke-width:6.4531002"
       inkscape:connector-curvature="0"
       d="m 173.43,910.59 c 0,0 -6.4087,3.4009 -13.068,6.7369 -3.3297,1.668 -6.7286,3.3228 -9.3614,4.5066 -1.3164,0.59189 -2.4472,1.0651 -3.2067,1.3444 -0.14623,0.0538 -0.17927,0.0537 -0.2931,0.0916 -2.4276,-0.56542 -5.3399,-2.2662 -8.6718,-4.2469 -3.5882,-2.133 -7.8537,-4.5874 -13.275,-4.3691 -1.2805,0.0516 -2.5951,0.27237 -4.6376,0.61107 -2.0425,0.3387 -4.6172,0.811 -7.534,1.3596 -5.8336,1.0972 -13.063,2.5279 -20.119,3.9566 -14.113,2.8574 -27.533,5.6829 -27.533,5.6829 l 1.7757,6.5689 c 0,0 13.393,-2.8187 27.464,-5.6676 7.0355,-1.4244 14.235,-2.8573 19.999,-3.9413 2.8817,-0.54201 5.4047,-1.0074 7.3443,-1.3291 1.9397,-0.32165 3.4957,-0.5005 3.586,-0.50413 2.5064,-0.10093 5.3074,1.2284 8.6891,3.2386 3.3817,2.0103 7.1269,4.653 12.137,5.4537 1.4799,0.2365 1.8773,-0.0309 2.4136,-0.16805 0.53633,-0.13725 1.029,-0.30564 1.5689,-0.50411 1.0797,-0.39699 2.3286,-0.93837 3.7411,-1.5735 2.8251,-1.2702 6.2723,-2.9497 9.6545,-4.644 6.7645,-3.3887 13.223,-6.8133 13.223,-6.8133 l -3.8963,-5.7898 z m -26.36,12.786 c 0.0105,-0.002 0.0732,0.002 0.0862,0 -0.0247,0.007 -0.10627,0.0421 -0.12069,0.0457 -0.0444,0.0114 -0.0882,-0.0218 0.0345,-0.0457 z" />
    <path
       id="path4004"
       sodipodi:nodetypes="ccccccccscc"
       style="fill:#2d2d2d;stroke:#1a1a1a;stroke-width:0.44661999px"
       inkscape:connector-curvature="0"
       d="m 72.123,916.44 31.503,-8.7225 0.70005,11.049 23.102,-0.58151 4.2004,-21.516 14.001,-3.489 8.4007,4.0705 8.4007,-4.0705 c 0,0 -23.802,-16.864 -26.602,-15.701 -2.8002,1.163 -12.751,-0.14749 -12.751,-0.14749 -15.718,1.4224 -43.509,15.985 -50.954,39.108 z" />
    <path
       id="path3829"
       sodipodi:nodetypes="cccc"
       style="fill:url(#radialGradient6562);stroke:#666666;stroke-width:0.44661999px"
       inkscape:connector-curvature="0"
       d="m 70.953,918.76 c 3.7706,-17.866 31.178,-34.551 52.274,-40.705 L 96.625,875.729 C 78.607,889.098 48.618,911.256 70.953,918.76 Z" />
    <path
       id="path3831"
       sodipodi:nodetypes="cccc"
       style="fill:url(#radialGradient6559);stroke:#1b7b9a;stroke-width:0.44661999px"
       inkscape:connector-curvature="0"
       d="m 67.922,918.76 c 13.561,-14.626 45.179,-42.925 54.605,-39.542 -11.619,26.225 14.599,12.41 25.202,15.119 -30.196,0.37868 -58.846,4.0983 -79.807,24.423 z" />
    <path
       id="path3833"
       style="fill:url(#radialGradient6556);stroke:#3c5fb3;stroke-width:0.44661999px"
       inkscape:connector-curvature="0"
       d="m 130.93,896.67 -2.8002,23.842 20.302,-0.58149 9.8008,-20.353 -11.201,-5.815 z" />
    <path
       id="path3835"
       sodipodi:nodetypes="cscscsscccc"
       style="fill:url(#radialGradient6553);stroke:#5088c7;stroke-width:0.44661999px"
       inkscape:connector-curvature="0"
       d="m 154.73,897.25 c 0,0 9.8008,6.978 12.601,6.978 2.8002,0 13.301,0.58149 13.301,0.58149 0,0 1.4001,5.2335 4.2004,4.652 2.8002,-0.5815 13.981,-10.225 13.981,-10.225 0,0 16.502,-2.7221 19.621,-10.709 1.6282,-4.169 6.5366,-13.44 0,-13.374 -14.212,0.1429 -20.822,1.6374 -19.602,-0.58151 l -7.7006,9.8855 c -5.2025,1.2542 -4.9441,-7.0432 -14.701,4.652 -7.234,1.2799 -14.468,5.4148 -21.702,8.141 z" />
    <path
       id="path3837"
       sodipodi:nodetypes="ccsccccc"
       inkscape:connector-curvature="0"
       style="fill:#666666;stroke:#1a1a1a;stroke-width:0.44661999px"
       d="m 97.675,875.44 8.4007,0.5815 c 0,0 8.2759,-5.1202 12.951,-5.2335 3.8419,-0.0931 10.851,3.7797 10.851,3.7797 l 5.2504,0.87225 -2.1002,1.7445 -9.1008,0.29074 z" />
    <path
       id="path3839"
       sodipodi:nodetypes="cccccccc"
       style="fill:#2d2d2d;stroke:#1a1a1a;stroke-width:0.44661999px"
       inkscape:connector-curvature="0"
       d="m 135.48,876.6 c 11.741,5.9119 22.774,11.824 26.252,17.736 17.735,-7.115 19.368,-12.19 29.052,-9.8855 l 7.3506,-10.467 -1.7502,-1.4537 -8.0507,5.815 -11.901,-0.29074 c -12.074,6.503 -26.089,4.4039 -40.953,-1.4538 z" />
    <path
       id="path3841"
       sodipodi:nodetypes="ccccsccc"
       style="fill:url(#radialGradient6548);stroke:#7a7a7a;stroke-width:0.44661999px"
       inkscape:connector-curvature="0"
       d="m 135.48,876.31 c 29.07,10.47 34.198,5.1969 41.654,1.4538 l 10.501,1.4537 9.8008,-6.6872 c 0,0 -15.401,-2.6167 -17.501,-2.6167 -2.1002,0 -21.002,3.7797 -21.002,3.7797 l -0.70005,1.7445 c -5.8112,5.0767 -13.209,5.8697 -22.752,0.87226 z" />
    <path
       id="path3893"
       style="color:#000000;text-indent:0;text-transform:none;fill:#0e232e;stroke:#1a1a1a;stroke-width:2.57189989"
       inkscape:connector-curvature="0"
       d="m 97.067,900.53 c -0.0101,0.008 -0.0205,0.0169 -0.0307,0.0254 l -25.206,22.68 -0.21439,0.1908 -0.09189,0.25441 -4.5482,13.089 2.588,0.62328 4.4563,-12.822 11.868,-10.685 c -1.2111,2.2878 -2.1912,4.6894 -2.8331,7.2633 l 2.634,0.45794 c 1.89,-7.5791 6.6232,-13.74 12.971,-19.208 l 0.35221,-0.31801 -1.9448,-1.5519 z" />
    <path
       id="path3895"
       style="color:#000000;text-indent:0;text-transform:none;fill:#0e232e;stroke:#1a1a1a;stroke-width:2.42400002"
       inkscape:connector-curvature="0"
       d="m 67.006,919.26 0.2884,1.1019 0.78037,2.9221 0.20358,0.80678 1.4081,-0.059 36.203,-1.5447 8.2448,4.27 -38.747,5.8836 -2.4768,0.38371 1.7643,1.0823 14.352,8.7663 2.2054,-1.2102 -12.571,-7.684 38.985,-5.9229 2.7483,-0.42307 -2.1206,-1.0921 -10.857,-5.6179 -0.47501,-0.25582 -0.64464,0.0295 -18.559,0.79693 0.18661,-1.2397 -19,-0.90518 -1.917,-0.0885 z m 3.5795,1.9382 11.383,0.54113 -11.112,0.47226 -0.27143,-1.0134 z" />
    <g
       id="g3923"
       style="fill:url(#linearGradient996);stroke:#1a1a1a"
       transform="matrix(0.32701,0,0,0.37329,258.47,742.34)">
      <path
         id="path3911"
         d="m -246.12,422.97 c -0.4882,-0.0842 -0.49076,-4.4e-4 -0.65625,0.0312 -0.33098,0.0634 -0.76719,0.16116 -1.4062,0.34375 h -0.0312 c -2.2459,0.64485 -4.968,1.914 -7.8125,3.4062 -1.5432,0.58405 -2.51,0.98841 -4.2188,1.625 -9.0993,3.3899 -19.438,7.1562 -19.438,7.1562 l 0.8125,2.25 c 0,0 6.5589,-2.4196 11.219,-4.125 -0.10027,0.0649 -0.21275,0.1228 -0.3125,0.1875 -6.6396,4.3068 -12.031,8.25 -12.031,8.25 l 1.125,2.0938 15.438,-5.7812 -17.156,10.062 1.0312,2.1562 15.5,-6.25 -15.625,8.2812 -0.15625,0.0625 0.96875,2.2188 1.5938,-0.5625 0.4375,1.2812 0.125,-0.0312 h 0.0312 l 18.031,-4.875 -15.219,6.1562 -0.15625,0.0625 0.75,2.2812 19.781,-5.1562 -16.781,7.0938 -0.1875,0.0625 0.75,2.2812 17.562,-4.0312 -17.375,6.6875 -0.1875,0.0625 0.6875,2.2812 18.75,-3.9688 -12.969,4.5312 -0.0937,0.0312 -0.0937,0.0312 -6.4375,3.5938 0.84375,2.2188 34.312,-7.875 -0.5625,-2.3438 -24.281,5.5625 27.594,-9.625 h 0.0625 l 0.15625,-0.0625 -0.65625,-2.2812 -0.125,0.0312 -22.156,4.6875 19.219,-7.375 h 0.0312 l 0.15625,-0.0625 -0.6875,-2.2812 -0.1875,0.0312 -0.0625,0.0312 -20.625,4.7188 19.469,-8.2188 -0.78125,-2.2812 -17.812,4.625 16.281,-6.5938 0.125,-0.0312 -0.75,-2.2812 -16.188,4.3438 16.188,-6.3438 h 0.0312 l -0.4375,-1.125 -0.40625,-1.125 h -0.0312 l -0.28125,0.0937 -23.031,8.125 22.062,-11.688 0.125,-0.0625 -1.0312,-2.1562 -0.0937,0.0312 -0.0625,0.0312 -21.844,8.8125 15.031,-8.7812 0.1875,-0.0937 -1.0312,-2.1562 -0.1875,0.0625 -0.0312,0.0312 -19.094,7.125 c 1.707,-1.1694 1.6923,-1.2388 3.7812,-2.5938 3.7983,-2.4638 7.9767,-4.9721 11.781,-6.9688 2.4447,-0.92637 5.2781,-1.9844 6.7812,-2.5938 0.62663,-0.25404 1.133,-0.47871 1.5312,-0.65625 0.39827,-0.17754 0.57969,-0.1974 0.96875,-0.5 0.0973,-0.0756 0.32187,-0.0576 0.46875,-0.75 0.0734,-0.34622 -0.12957,-0.92297 -0.40625,-1.1562 -0.27668,-0.23328 -0.4717,-0.26021 -0.59375,-0.28125 z"
         style="color:#000000;text-indent:0;text-transform:none;fill:url(#linearGradient992);stroke:#1a1a1a;stroke-width:2.4000001"
         inkscape:connector-curvature="0" />
      <path
         id="path3913"
         d="m -248.22,424.41 c -0.33098,0.0634 -0.76719,0.19241 -1.4062,0.375 -2.2377,0.63933 -4.9451,1.9208 -7.7812,3.4062 -1.5536,0.58806 -2.5276,0.98334 -4.25,1.625 -9.0993,3.3899 -19.469,7.125 -19.469,7.125 l 0.8125,2.2812 c 0,0 6.5589,-2.4196 11.219,-4.125 -0.10027,0.0649 -0.21275,0.1228 -0.3125,0.1875 -6.6396,4.3068 -12.031,8.25 -12.031,8.25 l 1.1562,2.0938 15.469,-5.8125 -17.062,10 -0.15625,0.0937 1.0625,2.125 0.15625,-0.0625 15.5,-6.2812 -15.812,8.4062 -0.15625,0.0625 0.96875,2.1875 0.15625,-0.0625 1.4688,-0.5 0.4375,1.3125 0.125,-0.0312 h 0.0312 l 17.906,-4.8438 -15.031,6.0938 -0.0937,0.0312 -0.125,0.0625 0.75,2.25 0.125,-0.0312 19.656,-5.125 -17,7.1875 0.75,2.2812 17.625,-4.0312 -17.625,6.7188 0.6875,2.3125 18.688,-3.9688 -12.906,4.5 -0.0937,0.0625 -0.0937,0.0312 -6.4375,3.5625 0.875,2.2188 34.281,-7.8438 -0.53125,-2.3438 -24.281,5.5625 27.656,-9.6562 0.125,-0.0312 -0.625,-2.3125 -22.25,4.7188 19.344,-7.4062 -0.6875,-2.3125 -20.875,4.8125 19.312,-8.1875 0.15625,-0.0625 -0.78125,-2.25 -17.875,4.6562 16.344,-6.625 0.15625,-0.0625 -0.78125,-2.25 -0.125,0.0312 h -0.0312 l -16.156,4.375 15.844,-6.25 0.46875,-0.15625 v -0.0312 h 0.0312 l -0.8125,-2.2188 -0.0625,0.0312 v -0.0312 l -0.53125,0.21875 -22.812,8 22.219,-11.75 -1.0312,-2.1875 -21.844,8.8125 14.875,-8.7188 0.1875,-0.0937 -1.0312,-2.1562 -19.312,7.25 c 1.707,-1.1694 1.6923,-1.2388 3.7812,-2.5938 3.7983,-2.4638 7.9767,-4.9721 11.781,-6.9688 2.4447,-0.92637 5.2781,-1.9844 6.7812,-2.5938 0.62663,-0.25404 1.1642,-0.47871 1.5625,-0.65625 0.39827,-0.17754 0.54844,-0.1974 0.9375,-0.5 0.0973,-0.0756 0.32187,-0.0576 0.46875,-0.75 0.0734,-0.34622 -0.12957,-0.95422 -0.40625,-1.1875 -0.27668,-0.23328 -0.4717,-0.22896 -0.59375,-0.25 -0.4882,-0.0842 -0.49076,-0.0317 -0.65625,0 z"
         style="color:#000000;text-indent:0;text-transform:none;fill:url(#linearGradient994);stroke:#1a1a1a;stroke-width:2.4000001"
         inkscape:connector-curvature="0" />
    </g>
    <path
       id="path3935"
       style="fill:url(#radialGradient6540);stroke:#717171;stroke-width:0.44661999px"
       inkscape:connector-curvature="0"
       d="m 101.53,875.73 -3.1503,-11.921 6.3005,-5.815 3.1503,8.4318 13.301,-2.6168 1.7501,3.489 -9.8008,1.7445 z" />
    <path
       id="path3939"
       style="color:#000000;text-indent:0;text-transform:none;fill:url(#radialGradient6806)"
       inkscape:connector-curvature="0"
       d="m 143.82,859.97 a 2.7665,2.6835 0 0 0 -0.53414,5.21 l 12.938,4.6343 a 2.7698,2.6868 0 0 0 1.9288,-5.0373 l -12.968,-4.6343 a 2.7665,2.6835 0 0 0 -1.365,-0.17271 z" />
    <path
       id="path3941"
       style="color:#000000;text-indent:0;text-transform:none;fill:url(#linearGradient6866)"
       inkscape:connector-curvature="0"
       d="m 80.077,850.58 a 2.7665,2.6835 0 0 0 -0.26706,5.3539 l 12.433,1.1514 a 2.7726,2.6895 0 1 0 0.53413,-5.3539 l -12.433,-1.1226 A 2.7665,2.6835 0 0 0 80.077,850.58 Z" />
    <g
       id="g3972"
       style="stroke:#1a1a1a"
       transform="matrix(0.19939,-0.097403,0.14061,0.20607,194.73,748.02)">
      <circle
         id="path3960"
         style="fill:#0e232e;fill-opacity:0.99065001;stroke-width:0"
         transform="matrix(0.49464,0,0,0.48338,-288.35,54.574)"
         cx="-817.5"
         cy="317.71933"
         r="6.0714288" />
      <path
         id="path3970"
         d="m -691.43,209.51 c 18.737,0.39112 39.606,15.745 49.812,22.961"
         sodipodi:nodetypes="cc"
         style="fill:none;stroke:#1a1a1a;stroke-width:1px"
         inkscape:connector-curvature="0" />
    </g>
    <g
       id="g3976"
       style="stroke:#1a1a1a"
       transform="matrix(-0.11726,-0.16871,-0.24808,0.11897,114.76,725.78)">
      <circle
         id="path3978"
         style="fill:#0e232e;fill-opacity:0.99065001;stroke-width:0"
         transform="matrix(0.49464,0,0,0.48338,-288.35,54.574)"
         cx="-817.5"
         cy="317.71933"
         r="6.0714288" />
      <path
         id="path3980"
         sodipodi:nodetypes="cc"
         style="fill:none;stroke:#1a1a1a;stroke-width:1px"
         inkscape:connector-curvature="0"
         d="m -691.43,209.51 c 18.737,0.39112 47.067,21.424 57.273,28.64" />
    </g>
    <g
       id="g3881"
       style="stroke:#1a1a1a"
       transform="matrix(0.28164,0,0,0.27674,300.36,833.6)">
      <path
         id="path3845"
         d="m -755.71,280.93 1.4286,10 22.857,-5 -2.8572,-10 c -7.1429,-0.91414 -14.286,-1.5487 -21.429,5 z"
         sodipodi:nodetypes="ccccc"
         style="fill:url(#linearGradient998);stroke-width:0"
         inkscape:connector-curvature="0" />
      <path
         id="path3847"
         d="m -750.71,291.65 2.8572,15.714 17.143,-4.2857 -4.29,-16.42 z"
         sodipodi:nodetypes="ccccc"
         style="fill:url(#linearGradient1000);stroke-width:0"
         inkscape:connector-curvature="0" />
      <path
         id="path3849"
         d="m -745.81,309.22 a 1.0011,1.0011 0 1 0 0.0937,2 h 10.75 l -9.625,3.0625 0.25,1.9375 9.8125,0.4375 -8.625,2.5938 0.3125,1.9688 h 10.531 l -10.875,3.7812 0.21875,1.9375 10.094,1.25 -6.5625,1.0312 -0.0625,1.9688 6.9688,1.5938 h -6.75 l -0.25,1.9688 10.469,2.625 -9.5625,0.40625 -0.1875,1.9688 12.594,3.2812 c -0.91226,0.28221 -1.8516,0.55444 -2.7812,0.875 -2.6094,0.89979 -4.9375,1.8125 -4.9375,1.8125 a 1.0040202,1.0040202 0 1 0 0.71875,1.875 c 0,0 2.3058,-0.89532 4.875,-1.7812 1.2846,-0.44296 2.6384,-0.89222 3.7812,-1.2188 1.1428,-0.32653 2.1483,-0.53125 2.4062,-0.53125 l 0.28125,-1.9688 -10,-2.5938 9.7812,-0.4375 0.1875,-1.9688 -9.25,-2.3125 h 7.375 0.21875 l 0.21875,-1.9688 -0.21875,-0.0312 -10.406,-2.375 8.4062,-1.3438 -0.0312,-1.9688 -12.906,-1.625 12.406,-4.3125 -0.34375,-1.9375 h -9.5625 l 7.7188,-2.3125 -0.25,-1.9688 -10.062,-0.46875 10.312,-3.2812 -0.28125,-1.9688 h -17.156 a 1.0001,1.0001 0 0 0 -0.0937,0 z"
         style="color:#000000;text-indent:0;text-transform:none;fill:#000000;stroke-width:0"
         inkscape:connector-curvature="0" />
      <path
         id="path3855"
         style="color:#000000;text-indent:0;text-transform:none;fill:url(#linearGradient1002);stroke-width:0"
         inkscape:connector-curvature="0"
         d="m -745.81,309.22 a 1.0011,1.0011 0 1 0 0.0937,2 h 10.75 l -9.625,3.0625 0.25,1.9375 9.8125,0.4375 -8.625,2.5938 0.3125,1.9688 h 10.531 l -10.875,3.7812 0.21875,1.9375 10.094,1.25 -6.5625,1.0312 -0.0625,1.9688 6.9688,1.5938 h -6.75 l -0.25,1.9688 10.469,2.625 -9.5625,0.40625 -0.1875,1.9688 12.594,3.2812 c -0.91226,0.28221 -1.8516,0.55444 -2.7812,0.875 -2.6094,0.89979 -4.9375,1.8125 -4.9375,1.8125 a 1.0040202,1.0040202 0 1 0 0.71875,1.875 c 0,0 2.3058,-0.89532 4.875,-1.7812 1.2846,-0.44296 2.6384,-0.89222 3.7812,-1.2188 1.1428,-0.32653 2.1483,-0.53125 2.4062,-0.53125 l 0.28125,-1.9688 -10,-2.5938 9.7812,-0.4375 0.1875,-1.9688 -9.25,-2.3125 h 7.375 0.21875 l 0.21875,-1.9688 -0.21875,-0.0312 -10.406,-2.375 8.4062,-1.3438 -0.0312,-1.9688 -12.906,-1.625 12.406,-4.3125 -0.34375,-1.9375 h -9.5625 l 7.7188,-2.3125 -0.25,-1.9688 -10.062,-0.46875 10.312,-3.2812 -0.28125,-1.9688 h -17.156 a 1.0001,1.0001 0 0 0 -0.0937,0 z" />
    </g>
    <path
       id="rect3048"
       style="color:#000000;text-indent:0;text-transform:none;fill:url(#linearGradient6858);stroke:#474747;stroke-width:1.02779996"
       inkscape:connector-curvature="0"
       d="m 67.466,910.77 c -4.1724,0 -7.1525,3.1207 -7.6559,6.7644 -0.85649,6.199 -2.037,12.578 0.11869,16.954 0.6849,1.3905 1.4101,2.8945 2.552,4.145 1.153,1.2626 2.8504,2.2164 4.9852,2.2164 h 1.9585 c 2.2134,0 4.5207,-0.99 6.2019,-2.3315 0.83794,-0.66865 1.5651,-1.4566 1.8991,-2.4755 0.3549,-1.0825 0.05449,-2.3762 -0.91989,-3.2239 -3.3624,-2.9253 -3.8928,-5.0555 -3.5015,-7.2537 0.3879,-2.1794 2.012,-4.5534 3.7389,-7.0522 0.68448,-0.99043 0.80644,-2.1902 0.44511,-3.1951 -0.3537,-0.98365 -1.057,-1.7713 -1.8694,-2.4179 -1.625,-1.2932 -3.8484,-2.13 -5.9942,-2.13 h -1.9585 z m 0,2.8209 h 1.9585 c 1.2731,0 3.0804,0.66569 4.1247,1.4968 0.51859,0.4127 0.87387,0.85837 0.97924,1.1514 0.11475,0.31918 0.10185,0.37171 -0.1187,0.69084 -1.7021,2.463 -3.6354,5.0634 -4.184,8.146 -0.55112,3.0964 0.58589,6.5361 4.4214,9.8731 0.14424,0.12548 0.1527,0.15934 0.14838,0.14392 -0.005,-0.0154 0.012,-0.0118 -0.0296,0.11514 -0.05999,0.18316 -0.40755,0.66643 -0.97923,1.1226 -1.1381,0.90813 -3.175,1.6983 -4.3621,1.6983 h -1.9585 c -1.3188,0 -2.0254,-0.42989 -2.7894,-1.2665 -0.7527,-0.82432 -1.4249,-2.0984 -2.1069,-3.4829 -1.4206,-2.884 -0.74047,-9.1521 0.11869,-15.371 0.34143,-2.4711 2.0655,-4.3177 4.7775,-4.3177 z" />
    <g
       id="g3902"
       style="stroke:#1a1a1a"
       transform="matrix(0.23432,0,0,0.36013,354.76,785.52)">
      <path
         id="path3904"
         sodipodi:nodetypes="ccccc"
         style="fill:url(#linearGradient4530);stroke-width:0"
         inkscape:connector-curvature="0"
         d="m -755.71,280.93 1.4286,10 22.857,-5 -2.8572,-10 c -7.1429,-0.91414 -14.286,-1.5487 -21.429,5 z" />
      <path
         id="path3906"
         sodipodi:nodetypes="ccccc"
         style="fill:url(#linearGradient4532);stroke-width:0"
         inkscape:connector-curvature="0"
         d="m -750.71,291.65 2.8572,15.714 17.143,-4.2857 -4.29,-16.42 z" />
      <path
         id="path3908"
         style="color:#000000;text-indent:0;text-transform:none;fill:#000000;stroke-width:0"
         inkscape:connector-curvature="0"
         d="m -745.81,309.22 a 1.0011,1.0011 0 1 0 0.0937,2 h 10.75 l -9.625,3.0625 0.25,1.9375 9.8125,0.4375 -8.625,2.5938 0.3125,1.9688 h 10.531 l -10.875,3.7812 0.21875,1.9375 10.094,1.25 -6.5625,1.0312 -0.0625,1.9688 6.9688,1.5938 h -6.75 l -0.25,1.9688 10.469,2.625 -9.5625,0.40625 -0.1875,1.9688 12.594,3.2812 c -0.91226,0.28221 -1.8516,0.55444 -2.7812,0.875 -2.6094,0.89979 -4.9375,1.8125 -4.9375,1.8125 a 1.0040202,1.0040202 0 1 0 0.71875,1.875 c 0,0 2.3058,-0.89532 4.875,-1.7812 1.2846,-0.44296 2.6384,-0.89222 3.7812,-1.2188 1.1428,-0.32653 2.1483,-0.53125 2.4062,-0.53125 l 0.28125,-1.9688 -10,-2.5938 9.7812,-0.4375 0.1875,-1.9688 -9.25,-2.3125 h 7.375 0.21875 l 0.21875,-1.9688 -0.21875,-0.0312 -10.406,-2.375 8.4062,-1.3438 -0.0312,-1.9688 -12.906,-1.625 12.406,-4.3125 -0.34375,-1.9375 h -9.5625 l 7.7188,-2.3125 -0.25,-1.9688 -10.062,-0.46875 10.312,-3.2812 -0.28125,-1.9688 h -17.156 a 1.0001,1.0001 0 0 0 -0.0937,0 z" />
      <path
         id="path3910"
         d="m -745.81,309.22 a 1.0011,1.0011 0 1 0 0.0937,2 h 10.75 l -9.625,3.0625 0.25,1.9375 9.8125,0.4375 -8.625,2.5938 0.3125,1.9688 h 10.531 l -10.875,3.7812 0.21875,1.9375 10.094,1.25 -6.5625,1.0312 -0.0625,1.9688 6.9688,1.5938 h -6.75 l -0.25,1.9688 10.469,2.625 -9.5625,0.40625 -0.1875,1.9688 12.594,3.2812 c -0.91226,0.28221 -1.8516,0.55444 -2.7812,0.875 -2.6094,0.89979 -4.9375,1.8125 -4.9375,1.8125 a 1.0040202,1.0040202 0 1 0 0.71875,1.875 c 0,0 2.3058,-0.89532 4.875,-1.7812 1.2846,-0.44296 2.6384,-0.89222 3.7812,-1.2188 1.1428,-0.32653 2.1483,-0.53125 2.4062,-0.53125 l 0.28125,-1.9688 -10,-2.5938 9.7812,-0.4375 0.1875,-1.9688 -9.25,-2.3125 h 7.375 0.21875 l 0.21875,-1.9688 -0.21875,-0.0312 -10.406,-2.375 8.4062,-1.3438 -0.0312,-1.9688 -12.906,-1.625 12.406,-4.3125 -0.34375,-1.9375 h -9.5625 l 7.7188,-2.3125 -0.25,-1.9688 -10.062,-0.46875 10.312,-3.2812 -0.28125,-1.9688 h -17.156 a 1.0001,1.0001 0 0 0 -0.0937,0 z"
         style="color:#000000;text-indent:0;text-transform:none;fill:url(#linearGradient4534);stroke-width:0"
         inkscape:connector-curvature="0" />
    </g>
    <path
       id="path3912"
       d="m 201.09,902.15 c -13.296,0 -24.073,11.312 -24.073,25.259 0,13.947 10.777,25.253 24.073,25.253 13.296,0 24.078,-11.306 24.078,-25.253 0,-13.947 -10.782,-25.259 -24.078,-25.259 z m 6.128,14.427 c 1.5872,0.0155 3.1512,0.46921 4.5679,1.4096 5.0372,3.3438 6.3516,11.571 2.9345,18.376 -3.4172,6.8051 -10.272,9.611 -15.309,6.2672 -5.0372,-3.3438 -6.3516,-11.571 -2.9345,-18.376 2.4561,-4.8912 6.6847,-7.7162 10.741,-7.6769 z"
       style="fill:url(#linearGradient6846);stroke-width:0"
       inkscape:connector-curvature="0" />
    <ellipse
       id="path3920"
       style="fill:#666666;stroke-width:0"
       transform="matrix(0.17877,0.14416,-0.10321,0.17402,231.71,740.97)"
       cx="325"
       cy="818.79077"
       rx="53.57143"
       ry="70.714287" />
    <ellipse
       id="path3922"
       style="fill:#000000;stroke-width:0"
       transform="matrix(0.16298,0.053402,-0.047755,0.21794,247.55,759.88)"
       cx="-33.57143"
       cy="753.79077"
       rx="9.2857141"
       ry="10" />
    <path
       id="path3924"
       sodipodi:r2="8.2325888"
       style="fill:#666666;stroke-width:0"
       sodipodi:type="star"
       d="m 555.42214,812.53676 c -0.54434,0.45811 -9.25507,-6.29632 -9.96737,-6.2111 -0.7123,0.0852 -7.07075,8.73193 -7.73088,8.48113 -0.66013,-0.25081 0.67421,-11.37009 0.22362,-11.93049 -0.45058,-0.56041 -11.71138,-1.33392 -11.8301,-2.04486 -0.11872,-0.71093 10.05326,-5.21471 10.3027,-5.89034 0.24945,-0.67563 -3.83721,-10.49494 -3.27239,-10.92034 0.56481,-0.42541 9.27238,5.79412 9.98208,5.67072 0.7097,-0.12339 7.37612,-9.06105 8.04965,-8.80944 0.67352,0.25161 -0.96753,11.61998 -0.54326,12.1861 0.42427,0.56612 11.72466,1.5114 11.83098,2.21074 0.10632,0.69934 -10.1,4.73236 -10.34808,5.40873 -0.24809,0.67637 3.84739,11.39105 3.30305,11.84915 z"
       sodipodi:r1="18.294641"
       inkscape:transform-center-x="-0.0011093528"
       inkscape:transform-center-y="0.024334341"
       transform="matrix(0.080959,0.026527,-0.0263,0.12003,183.23,812.58)"
       sodipodi:arg2="1.4196542"
       sodipodi:arg1="0.89605538"
       inkscape:randomized="-0.023"
       sodipodi:cy="798.07648"
       sodipodi:cx="544.28571"
       inkscape:rounded="0.06"
       inkscape:flatsided="false"
       sodipodi:sides="6" />
    <ellipse
       id="path3926"
       style="fill:#000000;stroke-width:0"
       transform="matrix(0.16298,0.053402,-0.047755,0.21794,242.01,766.67)"
       cx="-33.57143"
       cy="753.79077"
       rx="9.2857141"
       ry="10" />
    <path
       id="path3928"
       style="fill:#666666;stroke-width:0"
       sodipodi:type="star"
       sodipodi:sides="6"
       inkscape:transform-center-x="-0.0011083176"
       sodipodi:r1="18.294641"
       sodipodi:r2="8.2325888"
       inkscape:transform-center-y="0.02432881"
       sodipodi:arg1="0.89605538"
       sodipodi:arg2="1.4196542"
       transform="matrix(0.080959,0.026527,-0.0263,0.12003,177.69,819.37)"
       inkscape:randomized="-0.023"
       sodipodi:cy="798.07648"
       sodipodi:cx="544.28571"
       inkscape:rounded="0.06"
       inkscape:flatsided="false"
       d="m 555.42214,812.53676 c -0.54434,0.45811 -9.25507,-6.29632 -9.96737,-6.2111 -0.7123,0.0852 -7.07075,8.73193 -7.73088,8.48113 -0.66013,-0.25081 0.67421,-11.37009 0.22362,-11.93049 -0.45058,-0.56041 -11.71138,-1.33392 -11.8301,-2.04486 -0.11872,-0.71093 10.05326,-5.21471 10.3027,-5.89034 0.24945,-0.67563 -3.83721,-10.49494 -3.27239,-10.92034 0.56481,-0.42541 9.27238,5.79412 9.98208,5.67072 0.7097,-0.12339 7.37612,-9.06105 8.04965,-8.80944 0.67352,0.25161 -0.96753,11.61998 -0.54326,12.1861 0.42427,0.56612 11.72466,1.5114 11.83098,2.21074 0.10632,0.69934 -10.1,4.73236 -10.34808,5.40873 -0.24809,0.67637 3.84739,11.39105 3.30305,11.84915 z" />
    <ellipse
       id="path3930"
       style="fill:#000000;stroke-width:0"
       transform="matrix(0.16298,0.053402,-0.047755,0.21794,244.53,772.91)"
       cx="-33.57143"
       cy="753.79077"
       rx="9.2857141"
       ry="10" />
    <path
       id="path3932"
       sodipodi:r2="8.2325888"
       style="fill:#666666;stroke-width:0"
       sodipodi:type="star"
       d="m 555.42214,812.53676 c -0.54434,0.45811 -9.25507,-6.29632 -9.96737,-6.2111 -0.7123,0.0852 -7.07075,8.73193 -7.73088,8.48113 -0.66013,-0.25081 0.67421,-11.37009 0.22362,-11.93049 -0.45058,-0.56041 -11.71138,-1.33392 -11.8301,-2.04486 -0.11872,-0.71093 10.05326,-5.21471 10.3027,-5.89034 0.24945,-0.67563 -3.83721,-10.49494 -3.27239,-10.92034 0.56481,-0.42541 9.27238,5.79412 9.98208,5.67072 0.7097,-0.12339 7.37612,-9.06105 8.04965,-8.80944 0.67352,0.25161 -0.96753,11.61998 -0.54326,12.1861 0.42427,0.56612 11.72466,1.5114 11.83098,2.21074 0.10632,0.69934 -10.1,4.73236 -10.34808,5.40873 -0.24809,0.67637 3.84739,11.39105 3.30305,11.84915 z"
       sodipodi:r1="18.294641"
       inkscape:transform-center-x="-0.0011225074"
       inkscape:transform-center-y="0.024348709"
       transform="matrix(0.080959,0.026527,-0.0263,0.12003,180.22,825.6)"
       sodipodi:arg2="1.4196542"
       sodipodi:arg1="0.89605538"
       inkscape:randomized="-0.023"
       sodipodi:cy="798.07648"
       sodipodi:cx="544.28571"
       inkscape:rounded="0.06"
       inkscape:flatsided="false"
       sodipodi:sides="6" />
    <ellipse
       id="path3934"
       style="fill:#000000;stroke-width:0"
       transform="matrix(0.16298,0.053402,-0.047755,0.21794,250.08,773.5)"
       cx="-33.57143"
       cy="753.79077"
       rx="9.2857141"
       ry="10" />
    <path
       id="path3936"
       style="fill:#666666;stroke-width:0"
       sodipodi:type="star"
       sodipodi:sides="6"
       inkscape:transform-center-x="-0.0010740034"
       sodipodi:r1="18.294641"
       sodipodi:r2="8.2325888"
       inkscape:transform-center-y="0.024354249"
       sodipodi:arg1="0.89605538"
       sodipodi:arg2="1.4196542"
       transform="matrix(0.080959,0.026527,-0.0263,0.12003,185.77,826.19)"
       inkscape:randomized="-0.023"
       sodipodi:cy="798.07648"
       sodipodi:cx="544.28571"
       inkscape:rounded="0.06"
       inkscape:flatsided="false"
       d="m 555.42214,812.53676 c -0.54434,0.45811 -9.25507,-6.29632 -9.96737,-6.2111 -0.7123,0.0852 -7.07075,8.73193 -7.73088,8.48113 -0.66013,-0.25081 0.67421,-11.37009 0.22362,-11.93049 -0.45058,-0.56041 -11.71138,-1.33392 -11.8301,-2.04486 -0.11872,-0.71093 10.05326,-5.21471 10.3027,-5.89034 0.24945,-0.67563 -3.83721,-10.49494 -3.27239,-10.92034 0.56481,-0.42541 9.27238,5.79412 9.98208,5.67072 0.7097,-0.12339 7.37612,-9.06105 8.04965,-8.80944 0.67352,0.25161 -0.96753,11.61998 -0.54326,12.1861 0.42427,0.56612 11.72466,1.5114 11.83098,2.21074 0.10632,0.69934 -10.1,4.73236 -10.34808,5.40873 -0.24809,0.67637 3.84739,11.39105 3.30305,11.84915 z" />
    <ellipse
       id="path3938"
       style="fill:#000000;stroke-width:0"
       transform="matrix(0.16298,0.053402,-0.047755,0.21794,251.69,766.16)"
       cx="-33.57143"
       cy="753.79077"
       rx="9.2857141"
       ry="10" />
    <path
       id="path3940"
       sodipodi:r2="8.2325888"
       style="fill:#666666;stroke-width:0"
       sodipodi:type="star"
       d="m 555.42214,812.53676 c -0.54434,0.45811 -9.25507,-6.29632 -9.96737,-6.2111 -0.7123,0.0852 -7.07075,8.73193 -7.73088,8.48113 -0.66013,-0.25081 0.67421,-11.37009 0.22362,-11.93049 -0.45058,-0.56041 -11.71138,-1.33392 -11.8301,-2.04486 -0.11872,-0.71093 10.05326,-5.21471 10.3027,-5.89034 0.24945,-0.67563 -3.83721,-10.49494 -3.27239,-10.92034 0.56481,-0.42541 9.27238,5.79412 9.98208,5.67072 0.7097,-0.12339 7.37612,-9.06105 8.04965,-8.80944 0.67352,0.25161 -0.96753,11.61998 -0.54326,12.1861 0.42427,0.56612 11.72466,1.5114 11.83098,2.21074 0.10632,0.69934 -10.1,4.73236 -10.34808,5.40873 -0.24809,0.67637 3.84739,11.39105 3.30305,11.84915 z"
       sodipodi:r1="18.294641"
       inkscape:transform-center-x="-0.0011273993"
       inkscape:transform-center-y="0.024343417"
       transform="matrix(0.080959,0.026527,-0.0263,0.12003,187.37,818.85)"
       sodipodi:arg2="1.4196542"
       sodipodi:arg1="0.89605538"
       inkscape:randomized="-0.023"
       sodipodi:cy="798.07648"
       sodipodi:cx="544.28571"
       inkscape:rounded="0.06"
       inkscape:flatsided="false"
       sodipodi:sides="6" />
    <ellipse
       id="path3958"
       style="opacity:0.39024;fill:#999999;stroke-width:0"
       transform="matrix(0.18817,0.14662,-0.10864,0.18006,74.019,737.71)"
       cx="325"
       cy="818.79077"
       rx="53.57143"
       ry="69.263908" />
    <ellipse
       id="path3961"
       style="fill:#000000;stroke-width:0"
       transform="matrix(0.17658,0.051516,-0.051738,0.21024,93.011,769.71)"
       cx="-33.57143"
       cy="753.79077"
       rx="9.2857141"
       ry="10" />
    <path
       id="path3963"
       sodipodi:r2="8.2325888"
       style="fill:#666666;stroke-width:0"
       sodipodi:type="star"
       d="m 555.42214,812.53676 c -0.54434,0.45811 -9.25507,-6.29632 -9.96737,-6.2111 -0.7123,0.0852 -7.07075,8.73193 -7.73088,8.48113 -0.66013,-0.25081 0.67421,-11.37009 0.22362,-11.93049 -0.45058,-0.56041 -11.71138,-1.33392 -11.8301,-2.04486 -0.11872,-0.71093 10.05326,-5.21471 10.3027,-5.89034 0.24945,-0.67563 -3.83721,-10.49494 -3.27239,-10.92034 0.56481,-0.42541 9.27238,5.79412 9.98208,5.67072 0.7097,-0.12339 7.37612,-9.06105 8.04965,-8.80944 0.67352,0.25161 -0.96753,11.61998 -0.54326,12.1861 0.42427,0.56612 11.72466,1.5114 11.83098,2.21074 0.10632,0.69934 -10.1,4.73236 -10.34808,5.40873 -0.24809,0.67637 3.84739,11.39105 3.30305,11.84915 z"
       sodipodi:r1="18.294641"
       inkscape:transform-center-x="-0.0011963487"
       inkscape:transform-center-y="0.023455566"
       transform="matrix(0.087712,0.02559,-0.028494,0.11578,23.332,820.54)"
       sodipodi:arg2="1.4196542"
       sodipodi:arg1="0.89605538"
       inkscape:randomized="-0.023"
       sodipodi:cy="798.07648"
       sodipodi:cx="544.28571"
       inkscape:rounded="0.06"
       inkscape:flatsided="false"
       sodipodi:sides="6" />
    <ellipse
       id="path3965"
       style="fill:#000000;stroke-width:0"
       transform="matrix(0.17658,0.051516,-0.051738,0.21024,87.005,776.26)"
       cx="-33.57143"
       cy="753.79077"
       rx="9.2857141"
       ry="10" />
    <path
       id="path3967"
       style="fill:#666666;stroke-width:0"
       sodipodi:type="star"
       sodipodi:sides="6"
       inkscape:transform-center-x="-0.0012039544"
       sodipodi:r1="18.294641"
       sodipodi:r2="8.2325888"
       inkscape:transform-center-y="0.023468156"
       sodipodi:arg1="0.89605538"
       sodipodi:arg2="1.4196542"
       transform="matrix(0.087712,0.02559,-0.028494,0.11578,17.326,827.09)"
       inkscape:randomized="-0.023"
       sodipodi:cy="798.07648"
       sodipodi:cx="544.28571"
       inkscape:rounded="0.06"
       inkscape:flatsided="false"
       d="m 555.42214,812.53676 c -0.54434,0.45811 -9.25507,-6.29632 -9.96737,-6.2111 -0.7123,0.0852 -7.07075,8.73193 -7.73088,8.48113 -0.66013,-0.25081 0.67421,-11.37009 0.22362,-11.93049 -0.45058,-0.56041 -11.71138,-1.33392 -11.8301,-2.04486 -0.11872,-0.71093 10.05326,-5.21471 10.3027,-5.89034 0.24945,-0.67563 -3.83721,-10.49494 -3.27239,-10.92034 0.56481,-0.42541 9.27238,5.79412 9.98208,5.67072 0.7097,-0.12339 7.37612,-9.06105 8.04965,-8.80944 0.67352,0.25161 -0.96753,11.61998 -0.54326,12.1861 0.42427,0.56612 11.72466,1.5114 11.83098,2.21074 0.10632,0.69934 -10.1,4.73236 -10.34808,5.40873 -0.24809,0.67637 3.84739,11.39105 3.30305,11.84915 z" />
    <ellipse
       id="path3969"
       style="fill:#000000;stroke-width:0"
       transform="matrix(0.17658,0.051516,-0.051738,0.21024,89.742,782.27)"
       cx="-33.57143"
       cy="753.79077"
       rx="9.2857141"
       ry="10" />
    <path
       id="path3971"
       sodipodi:r2="8.2325888"
       style="fill:#666666;stroke-width:0"
       sodipodi:type="star"
       d="m 555.42214,812.53676 c -0.54434,0.45811 -9.25507,-6.29632 -9.96737,-6.2111 -0.7123,0.0852 -7.07075,8.73193 -7.73088,8.48113 -0.66013,-0.25081 0.67421,-11.37009 0.22362,-11.93049 -0.45058,-0.56041 -11.71138,-1.33392 -11.8301,-2.04486 -0.11872,-0.71093 10.05326,-5.21471 10.3027,-5.89034 0.24945,-0.67563 -3.83721,-10.49494 -3.27239,-10.92034 0.56481,-0.42541 9.27238,5.79412 9.98208,5.67072 0.7097,-0.12339 7.37612,-9.06105 8.04965,-8.80944 0.67352,0.25161 -0.96753,11.61998 -0.54326,12.1861 0.42427,0.56612 11.72466,1.5114 11.83098,2.21074 0.10632,0.69934 -10.1,4.73236 -10.34808,5.40873 -0.24809,0.67637 3.84739,11.39105 3.30305,11.84915 z"
       sodipodi:r1="18.294641"
       inkscape:transform-center-x="-0.0012258947"
       inkscape:transform-center-y="0.023464449"
       transform="matrix(0.087712,0.02559,-0.028494,0.11578,20.063,833.11)"
       sodipodi:arg2="1.4196542"
       sodipodi:arg1="0.89605538"
       inkscape:randomized="-0.023"
       sodipodi:cy="798.07648"
       sodipodi:cx="544.28571"
       inkscape:rounded="0.06"
       inkscape:flatsided="false"
       sodipodi:sides="6" />
    <ellipse
       id="path3973"
       style="fill:#000000;stroke-width:0"
       transform="matrix(0.17658,0.051516,-0.051738,0.21024,95.753,782.84)"
       cx="-33.57143"
       cy="753.79077"
       rx="9.2857141"
       ry="10" />
    <path
       id="path3975"
       style="fill:#666666;stroke-width:0"
       sodipodi:type="star"
       sodipodi:sides="6"
       inkscape:transform-center-x="-0.0011808588"
       sodipodi:r1="18.294641"
       sodipodi:r2="8.2325888"
       inkscape:transform-center-y="0.023454734"
       sodipodi:arg1="0.89605538"
       sodipodi:arg2="1.4196542"
       transform="matrix(0.087712,0.02559,-0.028494,0.11578,26.074,833.67)"
       inkscape:randomized="-0.023"
       sodipodi:cy="798.07648"
       sodipodi:cx="544.28571"
       inkscape:rounded="0.06"
       inkscape:flatsided="false"
       d="m 555.42214,812.53676 c -0.54434,0.45811 -9.25507,-6.29632 -9.96737,-6.2111 -0.7123,0.0852 -7.07075,8.73193 -7.73088,8.48113 -0.66013,-0.25081 0.67421,-11.37009 0.22362,-11.93049 -0.45058,-0.56041 -11.71138,-1.33392 -11.8301,-2.04486 -0.11872,-0.71093 10.05326,-5.21471 10.3027,-5.89034 0.24945,-0.67563 -3.83721,-10.49494 -3.27239,-10.92034 0.56481,-0.42541 9.27238,5.79412 9.98208,5.67072 0.7097,-0.12339 7.37612,-9.06105 8.04965,-8.80944 0.67352,0.25161 -0.96753,11.61998 -0.54326,12.1861 0.42427,0.56612 11.72466,1.5114 11.83098,2.21074 0.10632,0.69934 -10.1,4.73236 -10.34808,5.40873 -0.24809,0.67637 3.84739,11.39105 3.30305,11.84915 z" />
    <ellipse
       id="path3977"
       style="fill:#000000;stroke-width:0"
       transform="matrix(0.17658,0.051516,-0.051738,0.21024,97.496,775.76)"
       cx="-33.57143"
       cy="753.79077"
       rx="9.2857141"
       ry="10" />
    <path
       id="path3979"
       sodipodi:r2="8.2325888"
       style="fill:#666666;stroke-width:0"
       sodipodi:type="star"
       d="m 555.42214,812.53676 c -0.54434,0.45811 -9.25507,-6.29632 -9.96737,-6.2111 -0.7123,0.0852 -7.07075,8.73193 -7.73088,8.48113 -0.66013,-0.25081 0.67421,-11.37009 0.22362,-11.93049 -0.45058,-0.56041 -11.71138,-1.33392 -11.8301,-2.04486 -0.11872,-0.71093 10.05326,-5.21471 10.3027,-5.89034 0.24945,-0.67563 -3.83721,-10.49494 -3.27239,-10.92034 0.56481,-0.42541 9.27238,5.79412 9.98208,5.67072 0.7097,-0.12339 7.37612,-9.06105 8.04965,-8.80944 0.67352,0.25161 -0.96753,11.61998 -0.54326,12.1861 0.42427,0.56612 11.72466,1.5114 11.83098,2.21074 0.10632,0.69934 -10.1,4.73236 -10.34808,5.40873 -0.24809,0.67637 3.84739,11.39105 3.30305,11.84915 z"
       sodipodi:r1="18.294641"
       inkscape:transform-center-x="-0.0012274598"
       inkscape:transform-center-y="0.02346051"
       transform="matrix(0.087712,0.02559,-0.028494,0.11578,27.817,826.59)"
       sodipodi:arg2="1.4196542"
       sodipodi:arg1="0.89605538"
       inkscape:randomized="-0.023"
       sodipodi:cy="798.07648"
       sodipodi:cx="544.28571"
       inkscape:rounded="0.06"
       inkscape:flatsided="false"
       sodipodi:sides="6" />
    <path
       id="path3983"
       style="fill:#666666;stroke:#1a1a1a;stroke-width:0.46761px"
       inkscape:connector-curvature="0"
       d="m 41.64,932.01 1.9184,8.3741 h 39.328 c 0,0 4.796,-4.6523 0.95921,-3.7218 -3.8368,0.93045 -33.572,1.8609 -33.572,1.8609 z" />
    <g
       id="g4841"
       style="fill:url(#linearGradient4522);stroke:#1a1a1a"
       transform="matrix(0.29589,0,0,-0.095041,240.94,972.78)">
      <path
         id="path4843"
         style="color:#000000;text-indent:0;text-transform:none;fill:url(#linearGradient1004);stroke:#1a1a1a;stroke-width:2.4000001"
         inkscape:connector-curvature="0"
         d="m -246.12,422.97 c -0.4882,-0.0842 -0.49076,-4.4e-4 -0.65625,0.0312 -0.33098,0.0634 -0.76719,0.16116 -1.4062,0.34375 h -0.0312 c -2.2459,0.64485 -4.968,1.914 -7.8125,3.4062 -1.5432,0.58405 -2.51,0.98841 -4.2188,1.625 -9.0993,3.3899 -19.438,7.1562 -19.438,7.1562 l 0.8125,2.25 c 0,0 6.5589,-2.4196 11.219,-4.125 -0.10027,0.0649 -0.21275,0.1228 -0.3125,0.1875 -6.6396,4.3068 -12.031,8.25 -12.031,8.25 l 1.125,2.0938 15.438,-5.7812 -17.156,10.062 1.0312,2.1562 15.5,-6.25 -15.625,8.2812 -0.15625,0.0625 0.96875,2.2188 1.5938,-0.5625 0.4375,1.2812 0.125,-0.0312 h 0.0312 l 18.031,-4.875 -15.219,6.1562 -0.15625,0.0625 0.75,2.2812 19.781,-5.1562 -16.781,7.0938 -0.1875,0.0625 0.75,2.2812 17.562,-4.0312 -17.375,6.6875 -0.1875,0.0625 0.6875,2.2812 18.75,-3.9688 -12.969,4.5312 -0.0937,0.0312 -0.0937,0.0312 -6.4375,3.5938 0.84375,2.2188 34.312,-7.875 -0.5625,-2.3438 -24.281,5.5625 27.594,-9.625 h 0.0625 l 0.15625,-0.0625 -0.65625,-2.2812 -0.125,0.0312 -22.156,4.6875 19.219,-7.375 h 0.0312 l 0.15625,-0.0625 -0.6875,-2.2812 -0.1875,0.0312 -0.0625,0.0312 -20.625,4.7188 19.469,-8.2188 -0.78125,-2.2812 -17.812,4.625 16.281,-6.5938 0.125,-0.0312 -0.75,-2.2812 -16.188,4.3438 16.188,-6.3438 h 0.0312 l -0.4375,-1.125 -0.40625,-1.125 h -0.0312 l -0.28125,0.0937 -23.031,8.125 22.062,-11.688 0.125,-0.0625 -1.0312,-2.1562 -0.0937,0.0312 -0.0625,0.0312 -21.844,8.8125 15.031,-8.7812 0.1875,-0.0937 -1.0312,-2.1562 -0.1875,0.0625 -0.0312,0.0312 -19.094,7.125 c 1.707,-1.1694 1.6923,-1.2388 3.7812,-2.5938 3.7983,-2.4638 7.9767,-4.9721 11.781,-6.9688 2.4447,-0.92637 5.2781,-1.9844 6.7812,-2.5938 0.62663,-0.25404 1.133,-0.47871 1.5312,-0.65625 0.39827,-0.17754 0.57969,-0.1974 0.96875,-0.5 0.0973,-0.0756 0.32187,-0.0576 0.46875,-0.75 0.0734,-0.34622 -0.12957,-0.92297 -0.40625,-1.1562 -0.27668,-0.23328 -0.4717,-0.26021 -0.59375,-0.28125 z" />
      <path
         id="path4845"
         style="color:#000000;text-indent:0;text-transform:none;fill:url(#linearGradient1006);stroke:#1a1a1a;stroke-width:2.4000001"
         inkscape:connector-curvature="0"
         d="m -248.22,424.41 c -0.33098,0.0634 -0.76719,0.19241 -1.4062,0.375 -2.2377,0.63933 -4.9451,1.9208 -7.7812,3.4062 -1.5536,0.58806 -2.5276,0.98334 -4.25,1.625 -9.0993,3.3899 -19.469,7.125 -19.469,7.125 l 0.8125,2.2812 c 0,0 6.5589,-2.4196 11.219,-4.125 -0.10027,0.0649 -0.21275,0.1228 -0.3125,0.1875 -6.6396,4.3068 -12.031,8.25 -12.031,8.25 l 1.1562,2.0938 15.469,-5.8125 -17.062,10 -0.15625,0.0937 1.0625,2.125 0.15625,-0.0625 15.5,-6.2812 -15.812,8.4062 -0.15625,0.0625 0.96875,2.1875 0.15625,-0.0625 1.4688,-0.5 0.4375,1.3125 0.125,-0.0312 h 0.0312 l 17.906,-4.8438 -15.031,6.0938 -0.0937,0.0312 -0.125,0.0625 0.75,2.25 0.125,-0.0312 19.656,-5.125 -17,7.1875 0.75,2.2812 17.625,-4.0312 -17.625,6.7188 0.6875,2.3125 18.688,-3.9688 -12.906,4.5 -0.0937,0.0625 -0.0937,0.0312 -6.4375,3.5625 0.875,2.2188 34.281,-7.8438 -0.53125,-2.3438 -24.281,5.5625 27.656,-9.6562 0.125,-0.0312 -0.625,-2.3125 -22.25,4.7188 19.344,-7.4062 -0.6875,-2.3125 -20.875,4.8125 19.312,-8.1875 0.15625,-0.0625 -0.78125,-2.25 -17.875,4.6562 16.344,-6.625 0.15625,-0.0625 -0.78125,-2.25 -0.125,0.0312 h -0.0312 l -16.156,4.375 15.844,-6.25 0.46875,-0.15625 v -0.0312 h 0.0312 l -0.8125,-2.2188 -0.0625,0.0312 v -0.0312 l -0.53125,0.21875 -22.812,8 22.219,-11.75 -1.0312,-2.1875 -21.844,8.8125 14.875,-8.7188 0.1875,-0.0937 -1.0312,-2.1562 -19.312,7.25 c 1.707,-1.1694 1.6923,-1.2388 3.7812,-2.5938 3.7983,-2.4638 7.9767,-4.9721 11.781,-6.9688 2.4447,-0.92637 5.2781,-1.9844 6.7812,-2.5938 0.62663,-0.25404 1.1642,-0.47871 1.5625,-0.65625 0.39827,-0.17754 0.54844,-0.1974 0.9375,-0.5 0.0973,-0.0756 0.32187,-0.0576 0.46875,-0.75 0.0734,-0.34622 -0.12957,-0.95422 -0.40625,-1.1875 -0.27668,-0.23328 -0.4717,-0.22896 -0.59375,-0.25 -0.4882,-0.0842 -0.49076,-0.0317 -0.65625,0 z" />
    </g>
    <path
       id="path3838"
       style="fill:url(#linearGradient6830);stroke-width:0"
       inkscape:connector-curvature="0"
       d="m 115.29,915.08 c -15.499,0 -28.061,12.75 -28.061,28.47 0,15.72 12.562,28.463 28.061,28.463 15.499,0 28.068,-12.743 28.068,-28.463 0,-15.72 -12.569,-28.47 -28.068,-28.47 z m 7.1433,16.26 c 1.8502,0.0173 3.6732,0.52885 5.3246,1.5888 5.8718,3.7688 7.4039,13.042 3.4206,20.712 -3.9833,7.6701 -11.973,10.833 -17.845,7.0638 -5.8718,-3.7688 -7.4039,-13.042 -3.4206,-20.712 2.863,-5.5129 7.7921,-8.6969 12.52,-8.6526 z" />
    <ellipse
       id="path3860"
       style="fill:#666666;stroke-width:0"
       transform="matrix(0.21787,0.17643,-0.12579,0.20516,151.11,720.33)"
       cx="325"
       cy="818.79077"
       rx="53.57143"
       ry="70.714287" />
    <ellipse
       id="path3862"
       style="fill:#000000;stroke-width:0"
       transform="matrix(0.20689,0.063566,-0.060621,0.25942,172.45,742.54)"
       cx="-33.57143"
       cy="753.79077"
       rx="9.2857141"
       ry="10" />
    <path
       id="path3864"
       style="fill:#666666;stroke-width:0"
       sodipodi:type="star"
       sodipodi:sides="6"
       inkscape:transform-center-x="-0.001389098"
       sodipodi:r1="18.294641"
       sodipodi:r2="8.2325888"
       inkscape:transform-center-y="0.028941271"
       sodipodi:arg1="0.89605538"
       sodipodi:arg2="1.4196542"
       transform="matrix(0.10277,0.031575,-0.033386,0.14287,90.803,805.27)"
       inkscape:randomized="-0.023"
       sodipodi:cy="798.07648"
       sodipodi:cx="544.28571"
       inkscape:rounded="0.06"
       inkscape:flatsided="false"
       d="m 555.42214,812.53676 c -0.54434,0.45811 -9.25507,-6.29632 -9.96737,-6.2111 -0.7123,0.0852 -7.07075,8.73193 -7.73088,8.48113 -0.66013,-0.25081 0.67421,-11.37009 0.22362,-11.93049 -0.45058,-0.56041 -11.71138,-1.33392 -11.8301,-2.04486 -0.11872,-0.71093 10.05326,-5.21471 10.3027,-5.89034 0.24945,-0.67563 -3.83721,-10.49494 -3.27239,-10.92034 0.56481,-0.42541 9.27238,5.79412 9.98208,5.67072 0.7097,-0.12339 7.37612,-9.06105 8.04965,-8.80944 0.67352,0.25161 -0.96753,11.61998 -0.54326,12.1861 0.42427,0.56612 11.72466,1.5114 11.83098,2.21074 0.10632,0.69934 -10.1,4.73236 -10.34808,5.40873 -0.24809,0.67637 3.84739,11.39105 3.30305,11.84915 z" />
    <ellipse
       id="path3866"
       style="fill:#000000;stroke-width:0"
       transform="matrix(0.20689,0.063566,-0.060621,0.25942,165.41,750.63)"
       cx="-33.57143"
       cy="753.79077"
       rx="9.2857141"
       ry="10" />
    <path
       id="path3868"
       sodipodi:r2="8.2325888"
       style="fill:#666666;stroke-width:0"
       sodipodi:type="star"
       d="m 555.42214,812.53676 c -0.54434,0.45811 -9.25507,-6.29632 -9.96737,-6.2111 -0.7123,0.0852 -7.07075,8.73193 -7.73088,8.48113 -0.66013,-0.25081 0.67421,-11.37009 0.22362,-11.93049 -0.45058,-0.56041 -11.71138,-1.33392 -11.8301,-2.04486 -0.11872,-0.71093 10.05326,-5.21471 10.3027,-5.89034 0.24945,-0.67563 -3.83721,-10.49494 -3.27239,-10.92034 0.56481,-0.42541 9.27238,5.79412 9.98208,5.67072 0.7097,-0.12339 7.37612,-9.06105 8.04965,-8.80944 0.67352,0.25161 -0.96753,11.61998 -0.54326,12.1861 0.42427,0.56612 11.72466,1.5114 11.83098,2.21074 0.10632,0.69934 -10.1,4.73236 -10.34808,5.40873 -0.24809,0.67637 3.84739,11.39105 3.30305,11.84915 z"
       sodipodi:r1="18.294641"
       inkscape:transform-center-x="-0.0013934315"
       inkscape:transform-center-y="0.028945149"
       transform="matrix(0.10277,0.031575,-0.033386,0.14287,83.767,813.35)"
       sodipodi:arg2="1.4196542"
       sodipodi:arg1="0.89605538"
       inkscape:randomized="-0.023"
       sodipodi:cy="798.07648"
       sodipodi:cx="544.28571"
       inkscape:rounded="0.06"
       inkscape:flatsided="false"
       sodipodi:sides="6" />
    <ellipse
       id="path3870"
       style="fill:#000000;stroke-width:0"
       transform="matrix(0.20689,0.063566,-0.060621,0.25942,168.62,758.05)"
       cx="-33.57143"
       cy="753.79077"
       rx="9.2857141"
       ry="10" />
    <path
       id="path3872"
       style="fill:#666666;stroke-width:0"
       sodipodi:type="star"
       sodipodi:sides="6"
       inkscape:transform-center-x="-0.001420105"
       sodipodi:r1="18.294641"
       sodipodi:r2="8.2325888"
       inkscape:transform-center-y="0.028936554"
       sodipodi:arg1="0.89605538"
       sodipodi:arg2="1.4196542"
       transform="matrix(0.10277,0.031575,-0.033386,0.14287,86.974,820.77)"
       inkscape:randomized="-0.023"
       sodipodi:cy="798.07648"
       sodipodi:cx="544.28571"
       inkscape:rounded="0.06"
       inkscape:flatsided="false"
       d="m 555.42214,812.53676 c -0.54434,0.45811 -9.25507,-6.29632 -9.96737,-6.2111 -0.7123,0.0852 -7.07075,8.73193 -7.73088,8.48113 -0.66013,-0.25081 0.67421,-11.37009 0.22362,-11.93049 -0.45058,-0.56041 -11.71138,-1.33392 -11.8301,-2.04486 -0.11872,-0.71093 10.05326,-5.21471 10.3027,-5.89034 0.24945,-0.67563 -3.83721,-10.49494 -3.27239,-10.92034 0.56481,-0.42541 9.27238,5.79412 9.98208,5.67072 0.7097,-0.12339 7.37612,-9.06105 8.04965,-8.80944 0.67352,0.25161 -0.96753,11.61998 -0.54326,12.1861 0.42427,0.56612 11.72466,1.5114 11.83098,2.21074 0.10632,0.69934 -10.1,4.73236 -10.34808,5.40873 -0.24809,0.67637 3.84739,11.39105 3.30305,11.84915 z" />
    <ellipse
       id="path3874"
       style="fill:#000000;stroke-width:0"
       transform="matrix(0.20689,0.063566,-0.060621,0.25942,175.66,758.75)"
       cx="-33.57143"
       cy="753.79077"
       rx="9.2857141"
       ry="10" />
    <path
       id="path3876"
       sodipodi:r2="8.2325888"
       style="fill:#666666;stroke-width:0"
       sodipodi:type="star"
       d="m 555.42214,812.53676 c -0.54434,0.45811 -9.25507,-6.29632 -9.96737,-6.2111 -0.7123,0.0852 -7.07075,8.73193 -7.73088,8.48113 -0.66013,-0.25081 0.67421,-11.37009 0.22362,-11.93049 -0.45058,-0.56041 -11.71138,-1.33392 -11.8301,-2.04486 -0.11872,-0.71093 10.05326,-5.21471 10.3027,-5.89034 0.24945,-0.67563 -3.83721,-10.49494 -3.27239,-10.92034 0.56481,-0.42541 9.27238,5.79412 9.98208,5.67072 0.7097,-0.12339 7.37612,-9.06105 8.04965,-8.80944 0.67352,0.25161 -0.96753,11.61998 -0.54326,12.1861 0.42427,0.56612 11.72466,1.5114 11.83098,2.21074 0.10632,0.69934 -10.1,4.73236 -10.34808,5.40873 -0.24809,0.67637 3.84739,11.39105 3.30305,11.84915 z"
       sodipodi:r1="18.294641"
       inkscape:transform-center-x="-0.00137951"
       inkscape:transform-center-y="0.028942998"
       transform="matrix(0.10277,0.031575,-0.033386,0.14287,94.017,821.47)"
       sodipodi:arg2="1.4196542"
       sodipodi:arg1="0.89605538"
       inkscape:randomized="-0.023"
       sodipodi:cy="798.07648"
       sodipodi:cx="544.28571"
       inkscape:rounded="0.06"
       inkscape:flatsided="false"
       sodipodi:sides="6" />
    <ellipse
       id="path3878"
       style="fill:#000000;stroke-width:0"
       transform="matrix(0.20689,0.063566,-0.060621,0.25942,177.7,750.01)"
       cx="-33.57143"
       cy="753.79077"
       rx="9.2857141"
       ry="10" />
    <path
       id="path3880"
       style="fill:#666666;stroke-width:0"
       sodipodi:type="star"
       sodipodi:sides="6"
       inkscape:transform-center-x="-0.0014226325"
       sodipodi:r1="18.294641"
       sodipodi:r2="8.2325888"
       inkscape:transform-center-y="0.028948487"
       sodipodi:arg1="0.89605538"
       sodipodi:arg2="1.4196542"
       transform="matrix(0.10277,0.031575,-0.033386,0.14287,96.059,812.74)"
       inkscape:randomized="-0.023"
       sodipodi:cy="798.07648"
       sodipodi:cx="544.28571"
       inkscape:rounded="0.06"
       inkscape:flatsided="false"
       d="m 555.42214,812.53676 c -0.54434,0.45811 -9.25507,-6.29632 -9.96737,-6.2111 -0.7123,0.0852 -7.07075,8.73193 -7.73088,8.48113 -0.66013,-0.25081 0.67421,-11.37009 0.22362,-11.93049 -0.45058,-0.56041 -11.71138,-1.33392 -11.8301,-2.04486 -0.11872,-0.71093 10.05326,-5.21471 10.3027,-5.89034 0.24945,-0.67563 -3.83721,-10.49494 -3.27239,-10.92034 0.56481,-0.42541 9.27238,5.79412 9.98208,5.67072 0.7097,-0.12339 7.37612,-9.06105 8.04965,-8.80944 0.67352,0.25161 -0.96753,11.61998 -0.54326,12.1861 0.42427,0.56612 11.72466,1.5114 11.83098,2.21074 0.10632,0.69934 -10.1,4.73236 -10.34808,5.40873 -0.24809,0.67637 3.84739,11.39105 3.30305,11.84915 z" />
  </g>
  <metadata
     id="metadata170">
    <rdf:RDF>
      <cc:Work>
        <dc:format>image/svg+xml</dc:format>
        <dc:type
           rdf:resource="http://purl.org/dc/dcmitype/StillImage" />
        <cc:license
           rdf:resource="http://creativecommons.org/publicdomain/zero/1.0/" />
        <dc:publisher>
          <cc:Agent
             rdf:about="http://openclipart.org/">
            <dc:title>Openclipart</dc:title>
          </cc:Agent>
        </dc:publisher>
        <dc:title>ATV icon</dc:title>
        <dc:date>2011-02-26T07:33:43</dc:date>
        <dc:description>motor sports clip art</dc:description>
        <dc:source>https://openclipart.org/detail/122767/atv-icon-by-netalloy</dc:source>
        <dc:creator>
          <cc:Agent>
            <dc:title>netalloy</dc:title>
          </cc:Agent>
        </dc:creator>
        <dc:subject>
          <rdf:Bag>
            <rdf:li>ATV 4 wheelers</rdf:li>
            <rdf:li>ATV cartoon</rdf:li>
            <rdf:li>ATV motocross</rdf:li>
            <rdf:li>ATV racing</rdf:li>
            <rdf:li>All terrain vehicle</rdf:li>
            <rdf:li>QUAD</rdf:li>
            <rdf:li>agricuture vehicle</rdf:li>
            <rdf:li>icon</rdf:li>
            <rdf:li>icon 256x256</rdf:li>
            <rdf:li>motor sports</rdf:li>
            <rdf:li>motorsports</rdf:li>
            <rdf:li>racing</rdf:li>
          </rdf:Bag>
        </dc:subject>
      </cc:Work>
      <cc:License
         rdf:about="http://creativecommons.org/publicdomain/zero/1.0/">
        <cc:permits
           rdf:resource="http://creativecommons.org/ns#Reproduction" />
        <cc:permits
           rdf:resource="http://creativecommons.org/ns#Distribution" />
        <cc:permits
           rdf:resource="http://creativecommons.org/ns#DerivativeWorks" />
      </cc:License>
    </rdf:RDF>
  </metadata>
</svg>
