<?xml version="1.0" encoding="UTF-8" standalone="no"?>
<svg
   xmlns:dc="http://purl.org/dc/elements/1.1/"
   xmlns:cc="http://creativecommons.org/ns#"
   xmlns:rdf="http://www.w3.org/1999/02/22-rdf-syntax-ns#"
   xmlns:svg="http://www.w3.org/2000/svg"
   xmlns="http://www.w3.org/2000/svg"
   xmlns:sodipodi="http://sodipodi.sourceforge.net/DTD/sodipodi-0.dtd"
   xmlns:inkscape="http://www.inkscape.org/namespaces/inkscape"
   version="1.1"
   x="0"
   y="0"
   width="191.39365"
   height="191.39365"
   viewBox="0 0 995.24699 995.24699"
   id="svg64"
   sodipodi:docname="dolphin.svg"
   inkscape:version="0.92.3 (2405546, 2018-03-11)">
  <metadata
     id="metadata68">
    <rdf:RDF>
      <cc:Work
         rdf:about="">
        <dc:format>image/svg+xml</dc:format>
        <dc:type
           rdf:resource="http://purl.org/dc/dcmitype/StillImage" />
        <dc:title></dc:title>
      </cc:Work>
    </rdf:RDF>
  </metadata>
  <sodipodi:namedview
     pagecolor="#ffffff"
     bordercolor="#666666"
     borderopacity="1"
     objecttolerance="10"
     gridtolerance="10"
     guidetolerance="10"
     inkscape:pageopacity="0"
     inkscape:pageshadow="2"
     inkscape:window-width="1920"
     inkscape:window-height="1017"
     id="namedview66"
     showgrid="false"
     inkscape:zoom="0.2991128"
     inkscape:cx="-76.493051"
     inkscape:cy="-302.88666"
     inkscape:window-x="1672"
     inkscape:window-y="-8"
     inkscape:window-maximized="1"
     inkscape:current-layer="svg64"
     fit-margin-top="0"
     fit-margin-left="0"
     fit-margin-right="0"
     fit-margin-bottom="0"
     scale-x="5.2" />
  <defs
     id="defs5">
    <clipPath
       id="Clip_1">
      <path
         d="M 248.97,241.935 H 416.51 V 351.228 H 248.97 Z"
         id="path2"
         inkscape:connector-curvature="0" />
    </clipPath>
  </defs>
  <circle
     style="fill:#41ff00;fill-opacity:1;stroke:#0000ff;stroke-width:12.34015751;stroke-linejoin:round;stroke-miterlimit:4;stroke-dasharray:none;stroke-opacity:1"
     id="path875"
     cx="497.62347"
     cy="497.62347"
     r="491.4534" />
  <g
     id="baby"
     transform="translate(99.780271,99.780271)">
    <path
       d="m 468.279,45.274 c 14.926,4.53 29.581,9.959 43.868,16.216 23.166,10.147 45.403,22.462 66.268,36.762 0.48,-2.672 1.15,-3.697 3.523,-6.391 2.217,-2.516 4.585,-4.896 7.079,-7.136 4.735,-4.25 9.937,-7.984 15.449,-11.159 10.688,-6.156 26.235,-13 38.747,-10.33 0.143,0.031 0.256,0.1 0.351,0.191 2.222,-0.297 4.452,-0.563 6.669,-0.939 2.93,-0.496 5.838,-1.116 8.718,-1.849 3.273,-0.834 7.455,-1.441 10.483,-2.845 5.646,-2.617 7.817,-6.971 4.328,-12.558 -3.356,-5.376 -10.095,-9.286 -15.788,-11.981 -9.011,-4.266 -18.846,-7.049 -28.326,-10.063 -10.145,-3.225 -20.386,-6.188 -30.797,-8.431 -19.407,-4.182 -39.277,-6.289 -59.133,-6.017 -19.784,0.272 -39.544,2.793 -58.658,7.949 -9.374,2.53 -18.578,5.691 -27.552,9.394 -7.115,2.935 -13.835,6.815 -20.807,10.053 11.852,3.07 23.847,5.572 35.578,9.134"
       id="path7"
       inkscape:connector-curvature="0"
       style="fill:#85a2bb" />
    <path
       d="m 68.982,343.471 c 3.828,0.009 7.641,-1.655 10.878,-3.565 3.942,-2.327 7.626,-5.164 10.951,-8.304 4.167,-3.936 7.237,-8.291 10.063,-12.872 -12.304,7.372 -26.307,12.102 -40.298,14.655 l -0.071,0.012 c -0.328,1.584 -0.41,3.383 0.305,4.828 1.252,2.533 5.285,5.238 8.172,5.246"
       id="path9"
       inkscape:connector-curvature="0"
       style="fill:#903132" />
    <path
       d="m 590.765,567.855 c 21.979,-15.92 39.767,-37.079 51.886,-61.369 14.025,-28.111 19.691,-59.67 17.035,-90.966 -2.26,-26.618 -9.648,-55.025 -24.77,-77.366 -14.958,-22.099 -38.851,-39.229 -61.635,-52.485 -22.29,-12.968 -46.204,-21.626 -71.148,-27.676 -2.624,4.247 -5.609,8.273 -8.955,11.975 -7.859,8.696 -17.333,15.578 -27.944,20.536 -19.763,9.234 -42.24,12.764 -63.909,13.384 -21.324,0.61 -42.781,-2.066 -63.316,-7.829 -20.909,-5.868 -40.895,-14.823 -59.079,-26.705 -8.705,-5.688 -17.267,-12.03 -24.34,-19.707 -1.011,-1.098 -2.019,-2.255 -2.989,-3.459 -2.024,0.225 -4.401,-1.072 -6.068,-1.972 -1.093,-0.59 -2.109,-1.292 -3.083,-2.059 -0.537,-0.422 -1.081,-0.851 -1.567,-1.332 -0.774,-0.769 -1.259,-1.719 -1.779,-2.649 -5.132,-2.683 -9.836,-5.961 -15.557,-7.757 -7.172,-2.251 -14.726,-3.222 -22.229,-3.206 -14.406,0.031 -30.118,2.98 -41.564,12.249 -18.676,15.126 -21.8,42.131 -36.65,60.349 -4.468,5.48 -9.641,10.223 -15.285,14.33 -2.404,5.864 -7.029,11.472 -11.058,15.793 -5.173,5.546 -11.488,10.737 -18.515,13.73 -4.716,2.009 -10.256,3.142 -14.96,0.462 -3.818,-2.175 -5.59,-6.197 -5.25,-10.294 -3.92,0.666 -7.95,1.221 -11.999,1.508 -4.859,7.001 -5.177,18.427 1.794,24.195 8.507,7.037 22.191,3.779 31.808,1.33 10.835,-2.76 21.402,-6.562 31.518,-11.324 4.868,-2.291 9.624,-4.833 14.392,-7.323 2.518,-1.314 5.117,-2.254 7.728,-3.347 3.167,-1.327 5.975,-3.267 9.168,-4.523 0.571,-0.225 0.386,0.784 0.189,1.001 -1.705,1.888 -3.472,3.651 -5.296,5.309 6.544,0.337 13.089,0.675 19.632,1.027 34.729,1.868 69.479,4.565 104.238,5.691 17.095,0.553 34.148,0.049 51.05,-2.724 16.5,-2.708 32.667,-7.135 48.74,-11.672 31.249,-8.822 63.013,-18.388 95.818,-17.869 30.821,0.486 58.34,11.784 82.946,29.892 23.114,17.013 46.049,37.782 61.662,62.051 16.126,25.067 22.042,55.899 14.205,84.884 -3.411,12.613 -9.011,25.761 -17.281,35.979 -1.717,2.123 -3.598,3.958 -5.603,5.56 -4.07,11.203 -5.107,22.838 -1.98,34.378"
       id="path11"
       inkscape:connector-curvature="0"
       style="fill:#c3dbed" />
    <path
       d="M 533.714,77.398 C 507.652,64.063 480.07,53.493 451.655,46.414 439.242,43.321 426.723,39.534 414.172,37.066 400.59,34.397 386.619,34.038 372.844,33.129 312.725,29.164 252.445,37.013 194.629,53.618 c -28.137,8.08 -57.027,17.371 -83.005,31.042 -22.381,11.778 -41.936,28.9 -54.973,50.717 -13.455,22.515 -20.875,51.282 -16.96,77.444 1.032,6.895 2.961,13.68 5.876,20.021 2.556,5.563 6.46,9.654 10.21,14.367 0.362,-1.061 0.881,-2.109 1.595,-3.183 0.945,-1.422 2.319,-2.804 4.029,-3.223 1.173,-0.287 2.605,-0.191 3.817,-0.23 1.058,-0.034 0.593,1.678 0.12,2.083 -1.024,0.88 -1.203,1.81 -1.851,2.904 -0.499,0.843 -1.258,1.577 -1.878,2.331 -1.059,1.288 -1.765,2.744 -2.409,4.241 1.716,2.922 3.047,6.115 3.564,9.307 4.527,-5.316 11.625,-9.247 18.574,-6.604 0.62,0.236 0.09,1.515 -0.41,1.61 -6.551,1.239 -12.886,2.154 -17.984,6.527 0.294,3.829 -0.683,7.594 -3.687,10.825 -0.798,0.858 -1.827,0.792 -2.746,0.271 0.015,0.836 -0.285,1.536 -1.056,1.691 -13.867,2.789 -29.752,4.904 -39.619,16.196 -4.034,4.616 -6.997,10.706 -6.941,16.943 0.074,8.195 5.861,14.324 13.049,17.38 11.483,4.882 25.675,2.678 37.563,0.398 11.294,-2.165 22.38,-5.865 32.573,-11.212 10.651,-5.586 20.46,-13.272 27.753,-22.896 6.706,-8.851 10.964,-19.175 15.61,-29.176 4.557,-9.807 9.732,-19.54 17.765,-26.972 8.814,-8.153 20.534,-12.119 32.231,-13.836 10.92,-1.604 22.28,-1.566 33.054,0.996 8.202,1.95 17.117,5.272 23.116,11.468 1.626,1.544 3.257,3.039 5.289,4.028 -1.968,-3.895 -3.044,-8.116 -2.343,-12.535 0.049,-0.309 0.621,-0.961 0.836,-0.435 2.364,5.795 4.248,11.146 8.306,15.991 3.224,3.848 7.036,7.151 10.989,10.225 9.613,7.474 19.806,14.28 30.526,20.063 34.22,18.462 73.682,27.039 112.477,24.227 20.329,-1.474 41.598,-5.585 59.41,-15.923 8.552,-4.964 16.127,-11.395 22.332,-19.098 2.954,-3.668 5.599,-7.596 7.883,-11.716 1.738,-3.136 2.974,-6.012 4.989,-8.61 0.332,-9.107 -22.564,-8.37 -27.311,-8.299 -6.606,0.099 -13.212,0.572 -19.821,0.355 -13.705,-0.449 -25.733,-5.135 -37.721,-11.491 -13.068,-6.93 -25.817,-14.502 -38.174,-22.632 -4.961,-3.264 -9.835,-6.661 -14.209,-10.695 -2.113,-1.946 -4.033,-4.004 -5.641,-6.397 -1.749,-2.601 -1.658,-4.209 -2.328,-7.044 -0.116,-0.494 0.509,-1.769 1.127,-1.229 4.925,4.307 9.117,9.381 14.292,13.461 5.743,4.529 12.053,8.368 18.272,12.197 14.09,8.677 28.964,18.17 44.688,23.565 14.806,5.081 29.964,1.809 45.186,2.685 9.136,0.525 31.461,4.323 28.094,18.272 -0.166,0.686 -0.458,1.143 -0.817,1.446 -0.073,0.904 -0.259,1.825 -0.657,2.875 -1.004,2.654 -2.525,5.255 -3.942,7.698 -0.056,0.095 -0.118,0.187 -0.175,0.283 29.795,6.304 58.617,19.017 84.331,35.062 24.247,15.129 47.218,33.64 59.702,59.925 13.167,27.722 18.271,59.283 16.135,89.793 -3.601,51.451 -29.855,100.102 -72.182,129.889 -0.728,0.513 -2.001,-0.09 -2.253,-0.895 -3.498,-11.184 -3.618,-23.188 0.343,-34.132 -6.966,4.327 -15.176,6.222 -23.83,6.581 -30.754,1.274 -57.103,-15.942 -85.646,-24.34 -29.39,-8.647 -63.201,-8.228 -90.703,6.387 -23.578,12.527 -39.748,34.415 -48.403,59.201 16.058,-8.836 33.762,-13.177 52.194,-12.978 17.004,0.185 33.871,4.153 49.12,11.701 15.538,7.692 27.802,19.823 41.835,29.733 14.239,10.054 30.736,15.508 47.53,8.406 7.354,-3.109 13.883,-8.102 18.891,-14.316 2.694,-3.344 4.882,-7.128 6.494,-11.105 1.524,-3.762 2.052,-7.747 3.45,-11.535 1.107,-2.999 4.398,0.556 4.619,2.267 2.195,17.044 -14.268,33.752 -28.537,40.235 -0.746,0.339 -1.497,0.638 -2.249,0.933 -0.094,0.455 -0.291,0.85 -0.582,1.007 -5.707,3.088 -7.127,9.406 -6.216,15.493 1.193,7.98 7.987,13.772 13.592,18.83 9.197,8.3 16.764,17.308 21.975,28.668 5.191,11.316 8.114,23.587 9.223,35.965 1.163,12.984 1.23,26.635 -1.82,39.342 -0.704,2.935 -3.941,13.52 -0.02,14.749 2.89,0.906 7.941,-4.372 9.632,-6.044 8.405,-8.303 14.402,-19.16 21.049,-28.826 8.289,-12.056 17.05,-23.925 24.282,-36.661 7.385,-13.004 12.162,-26.76 13.341,-41.732 1.133,-14.394 -0.547,-28.817 -2.967,-42.997 -2.338,-13.699 -6.039,-27.241 -7.928,-41.002 -1.541,-11.215 -1.097,-22.171 6.511,-31.125 3.766,-4.431 8.223,-8.226 12.055,-12.609 4.942,-5.652 9.778,-11.404 14.504,-17.24 8.778,-10.844 17.128,-22.046 24.747,-33.737 15.504,-23.792 27.463,-49.662 34.064,-77.338 6.546,-27.446 7.772,-56.127 4.504,-84.114 C 711.16,218.171 629.274,126.292 533.714,77.398"
       id="path13"
       inkscape:connector-curvature="0"
       style="fill:#85a2bb" />
    <path
       d="m 605.271,74.292 c -7.551,-7.395 -18.042,-7.778 -28.025,-8.733 -3.431,-0.329 -6.988,-0.685 -10.594,-0.978 -0.089,-0.023 -0.177,-0.051 -0.266,-0.073 -4.192,-1.034 -8.094,-1.694 -11.951,-1.878 -7.991,-3.075 -16.029,-6.03 -24.086,-8.944 -6.141,-2.221 -12.306,-4.365 -18.479,-6.482 -0.851,-1.412 -1.979,-2.698 -3.084,-3.885 -2.753,-2.955 -6.068,-5.387 -9.717,-7.13 -7.204,-3.439 -17.325,-5.337 -24.79,-1.522 -12.949,-4.056 -27.613,-7.527 -40.29,-3.518 -0.681,0.216 -1.046,0.91 -1.151,1.713 -2.525,2.221 -3.105,5.776 1.596,7.362 9.441,3.185 19.14,5.37 28.915,7.276 3.099,1.105 6.161,2.208 9.172,3.197 11.453,3.762 22.859,7.676 34.119,11.986 23.308,8.921 46.676,19.374 67.197,33.698 2.193,1.53 6.08,1.219 7.95,-0.666 0.739,-0.746 1.609,-1.387 2.528,-1.985 1.417,0.072 2.84,-0.246 4.029,-1.076 0.972,-0.677 1.589,-1.683 1.763,-2.733 1.549,-1.356 2.656,-3.051 2.738,-5.543 1.246,-0.475 2.488,-0.958 3.731,-1.432 1.518,-0.579 2.899,-1.012 3.968,-1.696 0.913,-0.048 1.828,-0.251 2.706,-0.673 2.146,-1.03 4.207,-4.145 2.021,-6.285"
       id="path15"
       inkscape:connector-curvature="0"
       style="fill:#647a8c" />
    <path
       d="m 559.293,54.823 c -0.46,-1.677 -1.967,-3.27 -3.721,-3.596 2.815,0.523 -2.425,-0.546 -1.85,-0.417 -0.576,-0.13 -1.153,-0.242 -1.722,-0.404 -1.576,-0.445 -3.291,-1.046 -4.745,-1.738 -1.244,-0.592 -2.456,0.009 -2.737,1.333 -0.319,1.499 0.585,3.127 1.728,4.04 3.332,2.659 6.972,3.85 11.177,3.963 1.709,0.046 2.232,-1.859 1.87,-3.181"
       id="path17"
       inkscape:connector-curvature="0"
       style="fill:#647a8c" />
    <path
       d="m 551.17,583.731 c -5.885,10.599 -15.218,19.45 -26.676,23.668 -1.767,0.651 -3.587,1.189 -5.441,1.626 -0.371,0.173 -0.775,0.322 -1.222,0.438 -12.593,3.249 -25.582,3.724 -38.516,2.613 1.33,1.154 2.716,2.231 4.253,3.097 3.844,2.165 8.169,3.479 12.473,4.412 0.613,0.95 1.554,1.747 2.749,2.053 19.412,4.99 42.455,0.504 54.891,-13.997 -0.489,0.691 -0.981,1.38 -1.501,2.048 -2.993,3.837 -6.498,7.199 -9.497,11.04 -16.231,-1.164 -26.765,27.61 -10.579,37.159 0.576,0.34 1.17,0.219 1.601,-0.278 2.211,-2.544 0.482,-5.311 -0.237,-8.097 -0.845,-3.274 -1.036,-6.928 -0.241,-10.215 1.187,-4.908 4.439,-8.284 8.427,-11.173 1.579,-1.144 3.235,-2.577 4.901,-3.745 4.212,-2.122 7.392,-5.136 10.443,-8.919 3.521,-4.366 5.133,-7.824 5.108,-13.5 -0.002,-0.529 -0.442,-1.637 -1.179,-1.333 -1.921,0.793 -3.359,2.07 -4.618,3.538 3.463,-5.164 5.728,-11.36 6.285,-18.633 0.441,-5.765 -9.21,-5.789 -11.424,-1.802"
       id="path19"
       inkscape:connector-curvature="0"
       style="fill:#647a8c" />
    <path
       d="m 626.272,603.962 c 2.033,12.141 4.726,24.123 6.022,36.383 1.256,11.874 1.53,23.904 0.25,35.786 -0.593,5.519 -1.398,11.057 -2.442,16.509 -0.69,3.59 -1.526,7.146 -2.287,10.719 -0.716,3.354 -0.343,6.398 -0.369,9.779 -0.011,1.555 1.57,3.792 3.073,2.275 0.289,-0.291 0.554,-0.605 0.83,-0.909 0.319,-0.647 0.652,-1.287 0.967,-1.937 3.568,-7.362 6.878,-14.92 9.356,-22.735 0.574,-3.058 1.018,-6.078 1.404,-8.931 0.607,-4.505 1.036,-9.066 1.253,-13.639 -0.086,-0.373 -0.173,-0.745 -0.279,-1.119 -0.753,-2.682 -0.503,-4.961 0.432,-6.701 -0.047,-4.447 -0.323,-8.884 -0.878,-13.276 -1.536,-12.153 -4.789,-24.044 -7.28,-36.021 -2.526,-12.143 -2.573,-25.011 -6.965,-36.599 -0.236,-0.625 -0.838,-1.34 -1.548,-0.767 -3.884,3.145 -3.928,8.606 -3.696,13.223 0.303,6.02 1.164,12.021 2.157,17.96"
       id="path21"
       inkscape:connector-curvature="0"
       style="fill:#647a8c" />
    <path
       d="m 110.207,311.752 c -0.052,-0.273 -0.289,-0.559 -0.595,-0.518 -2.004,0.268 -1.951,0.74 -2.795,2.544 -1.272,2.724 -2.613,5.351 -4.427,7.757 -3.649,4.839 -8.083,9.703 -12.819,13.465 -4.425,3.516 -9.634,6.77 -15.194,8.041 -7.003,1.601 -15.993,-1.265 -14.316,-10.059 0.282,-1.473 -1.799,-6.242 -3.386,-3.486 -3.037,5.277 -0.646,11.611 3.464,15.647 5.971,5.863 14.578,5.26 21.803,2.245 7.474,-3.12 14.828,-8.71 19.832,-15.101 2.231,-2.849 3.792,-6.194 5.378,-9.424 1.833,-3.731 3.842,-6.946 3.055,-11.111"
       id="path23"
       inkscape:connector-curvature="0"
       style="fill:#748da0" />
    <path
       d="m 579.922,371.9 c -0.671,-0.637 -1.332,-1.282 -2.012,-1.91 -1.523,-1.41 -3.074,-2.791 -4.638,-4.155 3.663,2.611 7.243,5.336 10.734,8.196 -1.336,-0.85 -2.704,-1.578 -4.084,-2.131 m 50.058,62.674 c -5.06,-28.907 -23.669,-51.439 -47.092,-68.109 -11.922,-8.484 -24.999,-17.277 -38.57,-23.135 -3.394,-2.684 -7.81,-4.015 -11.955,-5.026 -1.099,-0.268 -1.673,1.997 -0.881,2.564 2.247,1.606 4.522,3.255 6.999,4.497 0.166,0.084 0.335,0.173 0.503,0.261 0.271,0.891 0.818,1.716 1.506,2.212 22.395,16.102 44.856,33.62 59.409,57.524 7.176,11.788 12.223,24.808 14.671,38.4 1.239,6.873 1.612,13.867 1.414,20.842 -0.19,6.663 -3.007,14.098 -1.014,20.493 0.158,0.508 0.591,1.115 1.16,1.668 -1.854,4.746 -4.01,9.133 -6.781,13.41 -1.743,2.691 -3.408,5.101 -4.615,8.086 -0.435,1.075 0.167,4.931 2.089,3.703 6.085,-3.887 9.704,-11 13.206,-17.13 3.457,-6.053 6.061,-12.527 7.998,-19.22 3.838,-13.263 4.33,-27.454 1.953,-41.04"
       id="path25"
       inkscape:connector-curvature="0"
       style="fill:#8fa0ad" />
    <path
       d="M 480.055,73.376 C 459.533,56.298 431.428,51.057 405.7,47.738 379.637,44.376 353.327,42.936 327.055,43.384 274.469,44.28 222.394,52.939 172.393,69.266 c -11.458,3.742 -22.663,7.837 -32.873,14.361 -4.777,3.052 -9.945,6.613 -13.606,10.999 -4.007,4.803 -5.795,11.021 -7.037,17.008 -0.531,2.563 7.213,14.198 10.018,11.993 3.662,-2.878 7.681,-5.226 11.474,-7.919 4.394,-3.119 8.307,-6.583 13.038,-9.266 8.705,-4.936 18.275,-8.497 27.716,-11.749 24.297,-8.368 49.399,-14.663 74.676,-19.239 50.213,-9.089 101.166,-12.087 152.028,-7.299 13.831,1.302 27.523,3.21 41.149,5.902 6.399,1.264 12.692,2.776 19.047,4.23 2.846,0.651 5.812,0.961 8.63,1.677 2.805,0.713 4.975,2.043 7.911,1.832 2.843,-0.204 -3.817,-7.844 -4.509,-8.42"
       id="path27"
       inkscape:connector-curvature="0"
       style="fill:#ffffff" />
    <path
       d="m 706.075,306.73 c -6.323,-33.555 -21.363,-65.24 -44.612,-90.35 -0.586,-0.632 -3.211,-3.591 -4.168,-2.275 -0.949,1.303 1.822,4.86 2.445,5.643 18.069,22.624 28.109,51.001 32.877,79.298 2.987,17.727 3.569,35.469 4.824,53.339 0.678,9.661 0.667,19.076 0.149,28.754 -0.513,9.559 -2.627,19.059 -2.475,28.62 0.014,0.914 2.996,5.207 3.566,3.938 3.719,-8.284 4.023,-18.455 5.563,-27.39 0.839,-4.864 1.41,-9.766 2.202,-14.636 0.656,-4.037 1.789,-7.884 2.119,-11.982 1.437,-17.821 0.823,-35.372 -2.49,-52.959"
       id="path29"
       inkscape:connector-curvature="0"
       style="fill:#ffffff" />
    <path
       d="m 495.519,544.941 c -15.633,-13.195 -36.918,-19.131 -57.055,-20.292 -19.278,-1.111 -40.911,3.525 -56.256,15.49 -1.663,1.297 4.103,8.754 6.18,8.011 9.328,-3.342 19.075,-6.723 28.776,-8.79 9.405,-2.004 18.907,-2.535 28.498,-2.495 9.073,0.039 18.144,1.185 26.93,3.46 8.423,2.18 16.281,6.383 24.687,8.353 1.048,0.246 -1.455,-3.479 -1.76,-3.737"
       id="path31"
       inkscape:connector-curvature="0"
       style="fill:#ffffff" />
    <path
       d="m 446.322,238.32 c -8.434,-1.856 -17.141,-2.204 -25.695,-3.492 -7.798,-1.173 -15.4,-3.38 -22.615,-6.561 -7.038,-3.103 -13.757,-7.066 -19.8,-11.833 -5.714,-4.507 -11.84,-10.036 -16.127,-15.92 -0.409,-0.56 -1.059,-0.761 -0.529,0.117 4.385,7.248 8.714,13.633 14.938,19.507 6.818,6.437 14.474,11.94 22.827,16.209 8.013,4.096 16.65,7.114 25.48,8.86 7.882,1.558 17.978,2.795 24.979,-2.026 1.207,-0.831 -2.584,-4.669 -3.458,-4.861"
       id="path33"
       inkscape:connector-curvature="0"
       style="fill:#ffffff" />
    <path
       d="m 45.339,276.42 c -10.917,-4.518 -24.24,3.21 -31.357,11.457 -3.815,4.422 -6.682,9.555 -8.3,15.175 -1.882,6.532 -2.252,11.699 2.415,17.073 0.6,0.691 1.317,1.213 2.207,0.691 3.48,-2.039 3.424,-5.876 3.886,-9.544 0.677,-5.383 2.365,-10.519 5.332,-15.083 2.435,-3.747 5.691,-6.89 9.411,-9.351 5.126,-3.39 11.184,-4.419 16.211,-7.825 0.722,-0.49 1.246,-2.157 0.195,-2.593"
       id="path35"
       inkscape:connector-curvature="0"
       style="fill:#acd2f2" />
    <path
       d="m 59.783,240.637 c -0.316,-0.754 -0.621,-0.707 -1.411,-0.544 -0.861,0.177 -0.791,0.188 -1.27,0.78 -0.184,0.227 -0.36,0.455 -0.515,0.704 -0.738,1.192 -1.275,2.546 -1.897,3.8 -0.639,1.289 0.68,4.272 2.042,2.424 1.362,-1.848 4.108,-4.645 3.051,-7.164"
       id="path37"
       inkscape:connector-curvature="0"
       style="fill:#acd2f2" />
    <path
       d="m 70.328,253.393 c -3.201,-1.467 -7.378,2.221 -9.63,4.102 -0.653,0.544 -0.773,3.027 0.5,2.351 2.942,-1.56 7.166,-2.266 9.202,-5.053 0.244,-0.334 0.424,-1.171 -0.072,-1.4"
       id="path39"
       inkscape:connector-curvature="0"
       style="fill:#acd2f2" />
    <path
       d="m 91.008,93.173 c -5.498,1.137 -9.842,6.49 -13.702,10.331 -3.789,3.772 -7.434,7.727 -10.772,11.904 -2.657,3.325 -5.167,6.771 -7.537,10.312 -6.312,5.981 -10.076,14.958 -12.892,23.087 -3.727,8.127 -6.787,16.557 -9.097,25.195 -2.723,10.18 -5.302,21.166 -2.229,31.494 0.194,0.653 0.965,1.365 1.624,0.753 3.626,-3.367 3.627,-9.062 4.631,-13.604 1.138,-5.149 2.112,-10.321 3.49,-15.415 2.799,-10.349 6.666,-20.407 11.491,-29.979 5.073,-10.064 11.298,-19.39 18.308,-28.197 3.182,-3.997 6.523,-7.855 10.08,-11.524 3.212,-3.315 8.039,-6.178 8.884,-10.917 0.221,-1.241 -0.595,-3.788 -2.279,-3.44"
       id="path41"
       inkscape:connector-curvature="0"
       style="fill:#acd2f2" />
    <path
       d="m 493.496,261.272 c -7.06,-0.221 -14.795,5.926 -21.014,8.997 -5.986,2.957 -12.111,5.591 -18.374,7.905 -13.042,4.819 -26.63,8.257 -40.407,10.139 -29.851,4.077 -60.176,1.846 -88.869,-7.482 -15.91,-5.172 -30.744,-12.725 -45.639,-20.193 -0.866,-0.433 -1.533,1.633 -0.921,2.153 23.274,19.771 55.058,29.657 84.994,33.365 30.005,3.717 60.622,1.163 89.38,-8.301 8.231,-2.708 16.291,-5.975 24.065,-9.804 6.16,-3.034 16.789,-6.733 18.144,-14.201 0.162,-0.895 -0.19,-2.541 -1.359,-2.578"
       id="path43"
       inkscape:connector-curvature="0"
       style="fill:#acd2f2" />
    <path
       d="m 631.121,21.146 c 0.2,0.132 0.122,0.044 -0.268,-0.29 -0.378,-0.388 -0.806,-0.697 -1.277,-0.853 10e-4,0.001 0.002,0.002 0.004,0.003 -0.302,-0.136 -0.617,-0.241 -0.947,-0.315 -1.572,-0.698 -3.298,-1.152 -4.947,-1.622 -3.544,-1.012 -7.131,-1.893 -10.72,-2.734 -7.655,-1.793 -15.396,-3.229 -23.172,-4.375 -15.276,-2.25 -30.747,-3.359 -46.188,-3.257 -15.247,0.101 -30.663,1.172 -45.687,3.84 -7.608,1.351 -15.17,2.997 -22.622,5.039 -3.024,0.828 -6.281,1.53 -9.094,2.939 -3.743,1.874 -6.84,4.351 -10.819,5.929 -0.122,0.049 -0.28,0.362 -0.052,0.306 3.693,-0.901 7.042,-0.837 10.818,-0.974 3.19,-0.115 6.304,-0.979 9.416,-1.639 7.866,-1.669 15.743,-3.211 23.7,-4.381 14.917,-2.194 29.88,-3.649 44.965,-3.81 28.973,-0.31 57.568,3.972 85.507,11.486 3.436,0.923 3.153,-3.141 1.383,-5.292"
       id="path45"
       inkscape:connector-curvature="0"
       style="fill:#acd2f2" />
    <path
       d="m 672.891,194.18 c -7.857,-10.437 -17.15,-19.802 -25.674,-29.755 -8.957,-10.463 -17.97,-20.965 -27.361,-31.042 -8.159,-8.754 -16.878,-16.89 -26.354,-24.205 -4.892,-3.778 -9.869,-7.461 -15.224,-10.565 -3.593,-2.083 -9.723,-6.808 -13.846,-4.873 -0.4,0.188 -0.696,0.937 -0.412,1.313 3.25,4.301 9.385,6.259 13.915,8.956 4.845,2.883 9.608,5.934 14.077,9.379 9.607,7.408 18.268,16.134 26.463,25.052 8.919,9.706 16.936,20.103 25.321,30.255 8.49,10.276 16.774,21.338 27.661,29.176 2.034,1.465 2.222,-2.646 1.434,-3.691"
       id="path47"
       inkscape:connector-curvature="0"
       style="fill:#acd2f2" />
    <path
       d="m 483.877,517.937 c -5.029,-3.615 -11.768,-4.522 -17.772,-5.512 -6.404,-1.055 -12.867,-1.562 -19.355,-1.59 -11.738,-0.048 -23.513,1.622 -34.818,4.768 -11.187,3.111 -21.885,7.962 -31.791,13.997 -4.78,2.911 -9.338,6.166 -13.682,9.694 -4.872,3.957 -9.907,7.938 -11.951,14.07 -0.185,0.553 -0.224,2.447 0.881,2.103 5.472,-1.7 9.393,-6.75 13.727,-10.265 4.48,-3.634 9.262,-6.908 14.224,-9.848 10.454,-6.196 21.891,-10.636 33.643,-13.657 11.48,-2.952 23.409,-4.302 35.259,-3.916 5.738,0.187 11.474,0.76 17.127,1.755 4.034,0.711 10.35,3.72 14.28,2.178 1.253,-0.492 1.233,-3.054 0.228,-3.777"
       id="path49"
       inkscape:connector-curvature="0"
       style="fill:#acd2f2" />
    <g
       clip-path="url(#Clip_1)"
       id="g53"
       style="opacity:0.51000001">
      <path
         d="m 416.47,321.11 c -0.989,-6.021 -3.76,-11.431 -7.859,-15.95 -2.29,-2.51 -7.71,-8.34 -11.451,-6.58 -0.75,0.349 -1.14,1.92 -0.58,2.559 -25.32,4.141 -51.429,-5.649 -75.14,-13.569 -12.09,-4.04 -24.03,-8.76 -35.199,-14.94 -4.911,-2.72 -9.68,-5.72 -14.191,-9.07 -5.72,-4.23 -10.479,-9.36 -15.64,-14.18 -0.46,-0.43 -0.87,-0.57 -1.22,-0.541 -1.31,-2.33 -2.74,-4.549 -4.379,-6.54 -1.051,-1.28 -2.011,1.151 -1.82,1.991 1.299,5.679 4.449,10.969 6.919,16.21 2,4.259 4,8.519 6.01,12.78 4.26,9.03 8.651,17.989 13.03,26.97 4.361,8.92 8.51,17.98 13.081,26.799 4.179,8.101 8.469,16.991 14.629,23.79 1.11,1.231 1.901,-0.729 1.8,-2.189 0.25,0.18 0.521,0.33 0.821,0.449 7.589,2.941 16.349,-0.099 24.019,-1.59 9.72,-1.879 19.42,-3.92 29.021,-6.359 9.179,-2.33 18.299,-4.891 27.379,-7.62 10.031,-3.011 19.57,-7.011 29.63,-9.7 1.06,-0.29 1.29,-1.83 1.14,-2.72"
         id="path51"
         inkscape:connector-curvature="0"
         style="fill:#152b40" />
    </g>
    <path
       d="m 719.449,411.87 c -6.602,27.677 -18.561,53.546 -34.064,77.338 -7.62,11.691 -15.969,22.893 -24.748,33.737 -4.725,5.836 -9.561,11.588 -14.503,17.24 -3.832,4.383 -8.289,8.178 -12.055,12.61 -7.609,8.953 -8.052,19.909 -6.512,31.124 1.89,13.762 5.591,27.304 7.929,41.003 2.42,14.179 4.099,28.602 2.967,42.996 -1.179,14.973 -5.956,28.728 -13.341,41.732 -7.233,12.737 -15.993,24.606 -24.282,36.661 -6.647,9.666 -12.644,20.523 -21.049,28.827 -1.692,1.671 -6.742,6.95 -9.632,6.044 -3.921,-1.23 -0.685,-11.815 0.019,-14.75 3.05,-12.707 2.984,-26.358 1.821,-39.341 -1.11,-12.378 -4.032,-24.65 -9.224,-35.966 -5.211,-11.359 -12.777,-20.367 -21.974,-28.668 -5.605,-5.058 -12.399,-10.85 -13.592,-18.829 -0.911,-6.088 0.509,-12.405 6.216,-15.493 0.291,-0.158 0.488,-0.553 0.582,-1.008 0.752,-0.295 1.503,-0.594 2.249,-0.933 14.268,-6.482 30.732,-23.19 28.537,-40.235 -0.221,-1.711 -3.512,-5.266 -4.619,-2.267 -1.399,3.788 -1.926,7.774 -3.451,11.535 -1.611,3.977 -3.799,7.761 -6.494,11.105 -5.008,6.215 -11.537,11.207 -18.89,14.316 -16.794,7.102 -33.291,1.649 -47.531,-8.406 -14.032,-9.91 -26.296,-22.041 -41.835,-29.732 -15.249,-7.548 -32.116,-11.517 -49.12,-11.702 -18.431,-0.199 -36.135,4.142 -52.193,12.978 8.654,-24.786 24.825,-46.674 48.402,-59.201 27.502,-14.614 61.314,-15.033 90.703,-6.387 28.543,8.399 54.893,25.614 85.647,24.34 8.653,-0.358 16.863,-2.254 23.83,-6.581 -3.961,10.944 -3.842,22.948 -0.344,34.133 0.252,0.804 1.526,1.407 2.254,0.894 42.326,-29.787 68.58,-78.437 72.182,-129.888 2.136,-30.511 -2.968,-62.072 -16.135,-89.793 -12.484,-26.286 -35.455,-44.796 -59.702,-59.926 -25.714,-16.045 -54.536,-28.758 -84.331,-35.062 0.056,-0.095 0.119,-0.187 0.175,-0.283 1.417,-2.442 2.938,-5.044 3.942,-7.698 0.397,-1.05 0.584,-1.971 0.656,-2.875 0.36,-0.303 0.652,-0.76 0.818,-1.445 3.367,-13.95 -18.958,-17.748 -28.094,-18.273 -15.223,-0.876 -30.38,2.397 -45.187,-2.684 -15.723,-5.396 -30.597,-14.889 -44.687,-23.566 -6.219,-3.829 -12.529,-7.668 -18.273,-12.196 -5.174,-4.08 -9.367,-9.154 -14.292,-13.462 -0.618,-0.54 -1.243,0.735 -1.127,1.229 0.67,2.835 0.58,4.444 2.329,7.044 1.608,2.393 3.528,4.452 5.64,6.398 4.374,4.033 9.248,7.43 14.209,10.694 12.358,8.13 25.107,15.702 38.175,22.632 11.987,6.356 24.016,11.042 37.721,11.491 6.609,0.217 13.215,-0.256 19.821,-0.354 4.747,-0.072 27.643,-0.809 27.311,8.299 -2.015,2.597 -3.251,5.473 -4.99,8.609 -2.283,4.12 -4.928,8.049 -7.883,11.717 -6.205,7.703 -13.78,14.133 -22.332,19.097 -17.811,10.338 -39.081,14.45 -59.41,15.923 -38.795,2.813 -78.257,-5.764 -112.476,-24.226 -10.72,-5.784 -20.913,-12.589 -30.527,-20.064 -3.953,-3.074 -7.764,-6.377 -10.988,-10.224 -4.059,-4.845 -5.942,-10.197 -8.307,-15.992 -0.214,-0.526 -0.787,0.126 -0.836,0.435 -0.701,4.419 0.375,8.641 2.343,12.535 -2.031,-0.988 -3.662,-2.483 -5.289,-4.027 -5.998,-6.197 -14.913,-9.519 -23.115,-11.469 -10.774,-2.562 -22.135,-2.6 -33.055,-0.996 -11.696,1.718 -23.417,5.683 -32.23,13.837 -8.033,7.431 -13.208,17.165 -17.765,26.971 -4.646,10.001 -8.904,20.326 -15.61,29.176 -7.293,9.624 -17.103,17.311 -27.753,22.897 -10.193,5.346 -21.279,9.047 -32.573,11.212 -11.888,2.279 -26.08,4.483 -37.563,-0.399 -7.188,-3.055 -12.975,-9.184 -13.05,-17.38 -0.055,-6.237 2.908,-12.327 6.942,-16.943 9.867,-11.292 25.752,-13.406 39.619,-16.195 0.77,-0.156 1.07,-0.856 1.056,-1.692 0.918,0.522 1.948,0.587 2.746,-0.27 3.004,-3.232 3.981,-6.996 3.687,-10.825 5.098,-4.374 11.433,-5.289 17.984,-6.528 0.5,-0.095 1.03,-1.374 0.41,-1.609 -6.95,-2.644 -14.047,1.287 -18.575,6.603 -0.516,-3.192 -1.847,-6.384 -3.563,-9.306 0.644,-1.497 1.35,-2.953 2.408,-4.242 0.62,-0.753 1.38,-1.488 1.879,-2.331 0.648,-1.093 0.826,-2.024 1.851,-2.904 0.472,-0.405 0.937,-2.117 -0.12,-2.083 -1.212,0.039 -2.644,-0.057 -3.818,0.231 -1.71,0.419 -3.084,1.8 -4.028,3.222 -0.714,1.074 -1.234,2.122 -1.596,3.183 -3.749,-4.713 -7.653,-8.804 -10.21,-14.366 -2.915,-6.342 -4.844,-13.126 -5.876,-20.022 -3.915,-26.162 3.506,-54.929 16.96,-77.443 C 69.687,113.56 89.243,96.438 111.624,84.66 137.601,70.99 166.492,61.699 194.629,53.619 252.445,37.014 312.724,29.164 372.844,33.13 c 13.775,0.908 27.746,1.267 41.328,3.937 12.55,2.467 25.07,6.254 37.483,9.347 28.415,7.08 55.996,17.649 82.059,30.984 95.559,48.894 177.446,140.774 190.239,250.359 3.267,27.986 2.042,56.668 -4.504,84.113 m -658.943,-78.474 0.07,-0.011 c 13.991,-2.553 27.994,-7.284 40.298,-14.656 -2.825,4.581 -5.896,8.937 -10.063,12.872 -3.325,3.14 -7.008,5.978 -10.951,8.304 -3.237,1.91 -7.05,3.574 -10.878,3.566 -2.887,-0.008 -6.92,-2.713 -8.172,-5.247 -0.715,-1.445 -0.632,-3.244 -0.304,-4.828 m 537.841,194.522 c 8.27,-10.219 13.871,-23.366 17.282,-35.98 7.837,-28.985 1.921,-59.817 -14.205,-84.883 -15.614,-24.27 -38.548,-45.039 -61.662,-62.051 -24.607,-18.109 -52.125,-29.406 -82.947,-29.893 -32.804,-0.518 -64.568,9.047 -95.817,17.869 -16.073,4.537 -32.24,8.964 -48.74,11.672 -16.903,2.774 -33.955,3.278 -51.05,2.724 -34.76,-1.126 -69.51,-3.822 -104.238,-5.691 -6.543,-0.352 -13.088,-0.69 -19.632,-1.027 1.824,-1.658 3.59,-3.421 5.296,-5.309 0.197,-0.217 0.381,-1.226 -0.19,-1 -3.192,1.255 -6.001,3.196 -9.168,4.522 -2.61,1.094 -5.21,2.033 -7.727,3.348 -4.769,2.489 -9.525,5.031 -14.393,7.322 -10.115,4.763 -20.683,8.564 -31.518,11.324 -9.617,2.449 -23.3,5.706 -31.807,-1.33 -6.972,-5.768 -6.653,-17.193 -1.794,-24.194 4.049,-0.287 8.078,-0.843 11.998,-1.509 -0.34,4.098 1.433,8.119 5.25,10.294 4.704,2.681 10.244,1.548 14.961,-0.462 7.026,-2.993 13.342,-8.184 18.515,-13.731 4.029,-4.32 8.654,-9.927 11.057,-15.792 5.645,-4.107 10.818,-8.85 15.285,-14.33 14.851,-18.217 17.974,-45.222 36.651,-60.348 11.445,-9.27 27.158,-12.219 41.563,-12.249 7.503,-0.017 15.058,0.954 22.23,3.206 5.72,1.796 10.424,5.073 15.556,7.757 0.521,0.929 1.005,1.88 1.78,2.648 0.485,0.482 1.03,0.91 1.566,1.332 0.975,0.768 1.99,1.47 3.083,2.06 1.667,0.899 4.044,2.196 6.068,1.971 0.97,1.204 1.979,2.362 2.99,3.459 7.073,7.677 15.634,14.019 24.339,19.707 18.184,11.882 38.17,20.837 59.08,26.705 20.535,5.763 41.992,8.439 63.315,7.83 21.67,-0.621 44.146,-4.151 63.909,-13.384 10.612,-4.958 20.085,-11.841 27.945,-20.536 3.345,-3.703 6.331,-7.73 8.955,-11.976 24.944,6.051 48.857,14.708 71.147,27.677 22.784,13.256 46.678,30.386 61.636,52.484 15.122,22.341 22.51,50.748 24.769,77.365 2.657,31.297 -3.009,62.856 -17.035,90.967 -12.119,24.29 -29.906,45.449 -51.886,61.369 -3.127,-11.54 -2.089,-23.175 1.981,-34.379 2.005,-1.602 3.886,-3.436 5.602,-5.558 M 481.06,16.693 c 19.114,-5.156 38.874,-7.677 58.659,-7.949 19.855,-0.272 39.725,1.835 59.132,6.017 10.411,2.243 20.652,5.206 30.797,8.431 9.48,3.013 19.315,5.797 28.326,10.063 5.693,2.695 12.432,6.605 15.788,11.981 3.489,5.587 1.318,9.941 -4.328,12.558 -3.028,1.404 -7.21,2.011 -10.483,2.845 -2.88,0.732 -5.788,1.353 -8.718,1.849 -2.217,0.376 -4.447,0.642 -6.669,0.939 -0.094,-0.091 -0.208,-0.16 -0.351,-0.191 -12.512,-2.67 -28.059,4.174 -38.746,10.33 -5.513,3.175 -10.715,6.908 -15.45,11.159 -2.494,2.24 -4.862,4.62 -7.079,7.136 -2.373,2.694 -3.043,3.719 -3.523,6.391 C 557.55,83.952 535.313,71.637 512.147,61.49 497.86,55.233 483.205,49.804 468.279,45.274 456.548,41.712 444.553,39.21 432.701,36.14 c 6.972,-3.238 13.692,-7.119 20.807,-10.054 8.974,-3.702 18.178,-6.863 27.552,-9.393 m 106.187,87.79 c -1.982,-1.439 -3.982,-2.852 -5.988,-4.254 1.159,-0.625 1.919,-1.697 3.181,-3.158 2.194,-2.535 4.533,-4.944 7.01,-7.204 5.025,-4.584 10.565,-8.573 16.518,-11.866 5.659,-3.131 11.622,-5.573 17.797,-7.477 3.847,-1.186 7.946,-1.75 11.849,-2.743 4.944,0.208 9.884,-0.822 14.719,-1.976 6.511,-1.555 12.443,-4.593 18.786,-6.306 3.59,-0.969 7.296,-1.959 8.687,-5.828 1.37,-3.807 -0.342,-7.686 -2.292,-10.95 C 671.853,33.238 662.687,28.472 652.692,24.67 641.94,20.581 630.845,17.161 619.805,13.946 577.82,1.72 533.369,-1.514 490.406,7.521 c -11.531,2.425 -22.936,5.711 -33.9,10.043 -10.573,4.178 -22.635,8.898 -31.278,16.568 -12.218,-3.379 -24.463,-5.084 -37.128,-5.964 -15.948,-1.109 -31.903,-2.151 -47.897,-2.166 -30.817,-0.028 -61.625,2.94 -91.941,8.426 -30.714,5.557 -60.94,13.678 -90.413,23.938 -26.647,9.275 -53.911,19.5 -76.003,37.554 -20.065,16.399 -34.88,37.852 -42.716,62.555 -8.077,25.461 -10.341,55.882 3.419,79.925 4.651,8.126 21.458,20.84 12.194,30.802 -0.349,0.376 -0.493,0.847 -0.49,1.35 -0.094,-0.013 -0.189,-0.026 -0.284,-0.017 -13.397,1.209 -27.968,3.397 -38.839,11.991 -8.081,6.39 -13.832,16.808 -12.531,27.304 1.349,10.873 10.321,19.278 20.227,22.912 4.754,1.744 9.764,2.545 14.845,2.749 -3.298,7.01 -2.823,15.253 1.414,22.225 6.214,10.225 18.481,13.02 29.656,11.851 14.04,-1.468 28.063,-6.249 40.957,-11.839 8.034,-3.482 15.439,-7.454 22.16,-12.535 0.131,0.051 0.267,0.086 0.41,0.098 34.144,2.676 68.307,4.924 102.496,6.917 16.663,0.972 33.358,2.053 50.056,1.578 15.233,-0.433 30.283,-2.517 45.163,-5.754 31.904,-6.938 62.671,-18.604 94.96,-23.848 31.628,-5.135 63.194,-3.204 91.798,12.216 12.963,6.989 24.798,15.881 35.979,25.421 11.188,9.545 22.038,19.636 31.645,30.79 20.337,23.609 32.329,52.897 27.831,84.392 -1.994,13.959 -7.095,27.69 -14.466,39.716 -3.519,5.74 -7.9,11.236 -13.879,14.541 -5.961,3.295 -12.931,4.609 -19.668,4.965 -30.438,1.611 -56.693,-15.768 -84.925,-24.07 -28.136,-8.273 -59.564,-8.399 -86.814,3.189 -23.072,9.81 -42.128,29.255 -52.391,52.042 -2.628,5.835 -4.271,11.612 -5.364,17.906 -0.148,0.858 0.436,2.048 1.235,2.935 0.1,0.678 0.241,1.34 0.472,1.962 0.28,0.748 1.037,-0.143 1.186,-0.465 0.048,-0.103 0.083,-0.211 0.123,-0.319 0.594,0.111 1.119,-0.144 1.413,-0.972 33.497,-16.142 74.984,-16.062 107.487,2.568 15.733,9.017 28.135,22.76 43.935,31.692 11.45,6.475 24.258,9.251 36.734,6.494 -3.749,4.39 -4.738,10.92 -3.422,16.749 2.752,12.185 14.233,19.309 22.161,27.957 19.397,21.159 23.382,54.856 19.386,82.273 -1.295,8.889 -7.459,21.351 0.657,28.834 6.732,6.204 14.847,-0.199 19.855,-5.354 8.872,-9.13 15.363,-20.871 22.549,-31.306 8.496,-12.34 17.503,-24.52 24.605,-37.742 14.647,-27.268 13.806,-56.811 8.616,-86.518 -2.38,-13.627 -6.217,-27.159 -7.806,-40.898 -0.77,-6.656 -0.953,-13.986 2.238,-20.084 2.937,-5.612 8.137,-9.645 12.436,-14.15 20.37,-21.349 38.591,-46.224 53.084,-71.907 14.518,-25.728 24.234,-53.6 28.169,-82.908 C 745.235,279.171 677.58,170.086 587.247,104.483"
       id="path55"
       inkscape:connector-curvature="0"
       style="fill:#2c4555" />
    <path
       d="m 143.435,228.338 c -0.234,-1.736 -0.467,-3.473 -0.7,-5.209 -0.931,-3.319 -2.611,-6.201 -5.039,-8.645 -1.323,-1.022 -2.644,-2.043 -3.966,-3.065 -3.056,-1.772 -6.353,-2.664 -9.889,-2.675 -2.698,-0.101 -5.215,0.461 -7.55,1.688 -2.428,0.79 -4.53,2.14 -6.305,4.052 -1.91,1.774 -3.261,3.875 -4.051,6.305 -1.228,2.335 -1.79,4.852 -1.688,7.549 0.233,1.736 0.466,3.473 0.7,5.209 0.931,3.319 2.611,6.201 5.039,8.646 1.322,1.021 2.643,2.042 3.966,3.064 3.055,1.772 6.352,2.664 9.889,2.675 2.698,0.101 5.214,-0.461 7.549,-1.688 2.429,-0.79 4.531,-2.14 6.306,-4.051 1.911,-1.775 3.26,-3.876 4.052,-6.306 1.226,-2.335 1.789,-4.852 1.687,-7.549"
       id="path57"
       inkscape:connector-curvature="0"
       style="fill:#1f1a16" />
    <path
       d="m 132.842,213.681 c -3.418,0 -3.424,5.312 0,5.312 3.419,0 3.424,-5.312 0,-5.312"
       id="path59"
       inkscape:connector-curvature="0"
       style="fill:#ffffff" />
    <path
       d="m 139.168,178.327 c -7.093,-3.189 -15.218,-2.421 -22.426,0.145 -7.788,2.77 -12.93,7.687 -15.967,15.391 -0.265,0.673 -0.087,2.822 1.113,2.057 6.305,-4.026 12.608,-8.459 19.801,-10.763 5.92,-1.896 11.609,-0.987 17.573,-1.802 2.103,-0.287 1.369,-4.37 -0.094,-5.028"
       id="path61"
       inkscape:connector-curvature="0"
       style="fill:#1f1a16" />
  </g>
</svg>
