<?xml version="1.0" encoding="UTF-8" standalone="no"?>
<!-- Created with Inkscape (http://www.inkscape.org/) -->

<svg
   xmlns:dc="http://purl.org/dc/elements/1.1/"
   xmlns:cc="http://creativecommons.org/ns#"
   xmlns:rdf="http://www.w3.org/1999/02/22-rdf-syntax-ns#"
   xmlns:svg="http://www.w3.org/2000/svg"
   xmlns="http://www.w3.org/2000/svg"
   xmlns:sodipodi="http://sodipodi.sourceforge.net/DTD/sodipodi-0.dtd"
   xmlns:inkscape="http://www.inkscape.org/namespaces/inkscape"
   id="svg2"
   sodipodi:docname="ostrich.svg"
   viewBox="0 0 1194.2186 1194.2186"
   version="1.1"
   inkscape:version="0.92.3 (2405546, 2018-03-11)"
   width="1194.2186"
   height="1194.2186">
  <defs
     id="defs11" />
  <sodipodi:namedview
     id="base"
     bordercolor="#666666"
     inkscape:pageshadow="2"
     inkscape:window-y="-8"
     pagecolor="#ffffff"
     inkscape:window-height="1017"
     inkscape:window-maximized="1"
     inkscape:zoom="0.49497475"
     inkscape:window-x="1672"
     showgrid="false"
     borderopacity="1.0"
     inkscape:current-layer="layer1"
     inkscape:cx="51.049635"
     inkscape:cy="771.22534"
     inkscape:window-width="1920"
     inkscape:pageopacity="0.0"
     inkscape:document-units="px"
     fit-margin-top="0"
     fit-margin-left="0"
     fit-margin-right="0"
     fit-margin-bottom="0" />
  <g
     id="layer1"
     inkscape:label="Layer 1"
     inkscape:groupmode="layer"
     transform="translate(214.26148,73.019017)">
    <circle
       style="fill:#ffff00;fill-opacity:0.50251257;stroke:#0000ff;stroke-width:12.34015751;stroke-linejoin:round;stroke-miterlimit:4;stroke-dasharray:none;stroke-opacity:1"
       id="path818"
       cx="382.84781"
       cy="524.09027"
       r="590.93921" />
    <g
       id="g4024"
       transform="matrix(1.1577135,0,0,1.1110463,-71.342297,-36.248394)"
       style="stroke:#9a00ff;stroke-opacity:1">
      <path
         id="path3913"
         d="m 264.29,918.08 c 16.535,11.595 54.507,-29.686 27.341,-9.0211 -7.732,6.1073 -18.023,7.1481 -27.341,9.0211 z m 17.857,16.429 c -8.5614,24.38 33.067,-3.7319 32.439,-18.258 23.394,-17.786 -11.609,-53.44 -2.5628,-66.077 -11.899,25.806 19.495,51.894 -6.2955,74.685 -3.8478,9.557 -14.921,9.6872 -23.58,9.6505 z m 11.429,-183.57 c 6.2983,33.064 4.9764,67.004 3.587,100.41 -0.28601,28.443 -14.21,51.859 -42.158,58.874 -4.0238,16.911 26.233,-11.675 35.714,-14.286 11.251,-28.484 14.411,-59.652 9.9761,-90.138 -1.7512,-18.36 -4.1734,-36.657 -7.1189,-54.862 z m 22.143,-60.714 c 0.59059,33.199 2.1745,66.44 -3.2362,99.367 -0.99798,21.772 -2.7221,56.498 -4.6638,70.535 -2.2255,-56.848 1.7671,-113.43 7.8999,-169.9 z m -25,-91.429 c -6.5946,25.427 26.635,82.493 21.647,79.863 C 298.935,655.397 275.15,626.5 290.719,598.796 Z m -49.286,-5.7143 c 20.876,25.449 30.248,58.242 37.607,89.612 -3.739,18.518 11.544,46.999 15.191,54.768 -7.056,-33.795 -6.5973,-68.289 -20.09,-100.92 -6.8464,-17.182 -16.87,-33.239 -32.708,-43.46 z m 145.71,116.42 c -3.9187,29.974 -17.462,56.985 -31.124,83.263 0.54376,25.568 -12.933,58.75 -4.3152,78.674 28.051,-11.958 -13.112,-5.7639 2.9434,-27.336 5.2106,-30.594 7.4627,-61.291 23.454,-88.932 3.9154,-15.025 6.6573,-30.335 9.0413,-45.669 z m 33.571,-72.857 c 10.751,32.666 0.93519,63.135 -20,89.286 -8.5615,12.668 -22.722,63.578 -12.464,23.872 3.4754,-35.96 38.512,-61.448 33.572,-98.564 -0.22923,-4.8737 -0.58951,-9.7417 -1.1078,-14.593 z m -39.286,-78.571 c -5.0617,38.455 25.183,73.875 10.939,112.12 -4.2431,13.147 -0.22013,53.294 4.7752,20.021 7.8776,-33.629 6.2975,-66.687 -8.4696,-98.272 -2.6234,-11.244 -4.9642,-22.553 -7.2447,-33.871 z m 50,-95.714 c 19.85,56.863 -3.541,115.43 -15.843,171.09 -1.1953,19.615 -1.6696,-31.289 2.9554,-38.742 12.105,-42.967 11.95,-88.084 12.888,-132.35 z m -204.29,-190 c -0.0913,39.036 -3.6457,80.553 12.249,117.14 5.3275,12.628 28.996,47.046 9.4221,17.447 -19.499,-25.001 -25.741,-55.91 -28.305,-86.723 -3.8205,-16.467 -4.6854,-33.876 6.6334,-47.861 z m -39.27,-160.72 c 25.427,16.995 29.798,49.055 25.714,77.143 0.96853,40.402 -15.852,77.898 -20.064,117.47 -3.047,41.886 8.8626,82.886 7.9214,124.68 5.0586,-46.96 -2.0704,-93.87 -2.8571,-140.71 8.062,-32.162 18.302,-63.967 18.385,-97.564 4.7382,-25.701 10.872,-60.549 -18.46,-74.253 -3.4752,-2.3612 -7.0198,-4.6212 -10.64,-6.7543 z m -5,-23.571 c 26.662,-26.219 67.676,-9.4236 66.715,28.468 5.1004,37.74 1.9594,77.645 -10.312,113.74 -9.9326,8.3137 -13.86,61.179 -10.715,25.749 1.6968,-34.095 21.465,-64.468 16.991,-99.381 2.0446,-29.185 4.1646,-84.223 -39.107,-77.861 -8.2635,1.8826 -15.963,5.6661 -23.571,9.2857 z m 200.71,677.14 c 0.9909,21.083 -1.3438,41.507 -4.2857,62.143 -0.20572,13.015 -20.198,49.538 -15.358,13.435 11.366,8.6799 11.388,-36.231 17.543,-50.909 0.91988,-8.2023 1.5747,-16.432 2.1012,-24.669 z"
         style="fill:#ffaaaa;stroke:#9a00ff;stroke-opacity:1"
         inkscape:connector-curvature="0" />
      <path
         id="path3973"
         d="m 541.86,493.93 c 14.23,-3.5832 42.143,-3.6062 48.704,-6.8605 -15.185,-5.238 -34.867,1.6297 -45.847,-15.997 6.4511,7.5648 6.4921,17.444 -2.8571,22.857 z m -10,-52.143 c 17.954,11.115 35.272,25.953 57.214,27.469 11.343,-0.7345 17.392,21.962 3.2989,10.71 -17.39,-7.4552 -38.786,-8.2265 -50.513,-25.322 -3.6631,-4.014 -6.8346,-8.4493 -10,-12.857 z m -15,-42.143 c 18.274,8.449 35.639,18.586 51.679,30.697 18.063,8.8127 41.575,14.715 48.177,36.498 4.0535,9.1872 -1.106,36.727 -2.2089,36.197 -0.42614,-22.39 -10.438,-48.341 -34.244,-54.501 -19.532,-9.909 -35.473,-25.693 -56.26,-33.176 -3.7838,-4.4221 -5.4677,-10.251 -7.1428,-15.714 z m -5,-12.143 c 7.9396,19.496 44.992,32.256 51.887,6.4786 1.9276,-17.237 19.33,-29.59 34.501,-17.932 15.393,-1.4008 12.39,-4.1991 -1.2566,-5.273 -13.665,-6.8053 -33.615,-4.6839 -37.736,12.536 -2.5152,23.661 -31.542,16.69 -44.545,5.9895 l -2.8508,-1.7982 z m 11.429,-25.714 c 19.879,-3.1261 35.797,-14.473 48.571,-29.286 5.7361,-3.527 38.22,-10.954 19.665,0.33787 -12.075,-1.0738 -22.132,18.4 -4.2527,12.868 23.681,-15.394 33.203,15.832 43.874,31.08 8.7751,15.359 -12.939,-9.6561 -19.286,-12.857 -14.611,-17.517 -38.861,-20.564 -57.723,-8.0842 -10.009,3.1174 -20.522,4.3348 -30.849,5.9413 z m 35.714,-65.714 c 19.989,-2.4964 33.189,14.564 45.714,27.143 7.1342,-17.256 -8.516,-30.218 -24.372,-27.916 -6.0666,-7.7911 -14.96,-4.3192 -21.342,0.77292 z m -290.71,-31.44 c -21.541,-8.9209 -32.596,26.955 -19.511,32.608 -4.1055,-14.839 7.766,-25.887 19.511,-32.608 z m 31.429,-52.857 c -10.314,2.6384 -32.03,18.81 -25.731,24.974 10.13,-6.685 19.528,-14.352 25.731,-24.974 z m 83.571,-52.143 c -18.488,-9.7126 -25.303,13.724 -42.542,13.264 -11.291,11.052 -30.064,34.982 -27.309,45.325 3.3968,-12.606 24.844,-44.832 35.293,-23.922 -0.63968,7.492 0.48799,32.062 6.0817,25.156 4.1977,-16.481 -6.8775,-39.121 5.7845,-51.041 7.8194,-2.3255 15.285,-5.3432 22.692,-8.7804 z m 212.14,80 c -15.842,10.761 -26.392,26.316 -32.143,44.286 -14.342,19.661 -38.837,26.512 -57.143,41.429 23.539,-17.116 42.524,-39.495 58.571,-63.571 8.2351,-9.8626 19.655,-16.025 30.714,-22.143 z m -66.429,-11.429 c 8.5348,-16.86 27.307,-30.06 45.745,-18.402 11.506,4.6835 35.172,3.0071 28.363,22.241 -13.454,-6.8679 -27.267,-19.47 -45.018,-15.479 -11.173,-2.1762 -20.479,5.85 -29.089,11.64 z m 1.4286,-53.571 c -1.274,36.409 -17.812,69.268 -34.355,100.85 l -9.216,18.432 c 18.532,-21.899 35.495,-45.97 42.093,-74.354 3.9834,-14.666 14.701,-31.609 1.4781,-44.932 z m -27.143,-8.5714 c 4.6902,-18.394 25.65,-8.2187 28.071,-3.4973 -0.29493,-21.995 -32.465,-17.271 -28.071,3.4973 z m -55.714,-10.714 c 19.289,-9.0822 46.036,11.495 38.176,32.547 -8.8201,22.441 -18.243,44.728 -28.176,66.739 11.128,-23.117 21.304,-46.752 34.967,-68.5 8.1631,-14.363 -2.0856,-33.381 -17.824,-36.5 -9.8936,-8.7816 -19.075,-1.2434 -27.143,5.7143 z m -51.429,-3.5714 c 16.797,0.0969 29.444,-10.631 42.857,-16.429 12.87,14.111 0.45972,35.294 2.941,52.361 1.6651,14.638 -22.016,46.508 -22.17,44.97 10.543,-15.495 19.223,-33.176 16.996,-52.49 2.28,-10.462 6.3092,-40.96 -12.403,-30.768 -5.8391,16.775 -17.535,12.309 -28.221,2.3549 z m -13.571,64.286 c 0.7319,-19.046 -3.1142,-39.629 6.4286,-57.143 9.8797,5.5406 -9.1795,27.747 -5.8079,40.023 -0.41219,5.697 -0.57599,11.41 -0.62069,17.12 z"
         style="fill:none;stroke:#9a00ff;stroke-width:1px;stroke-opacity:1"
         inkscape:connector-curvature="0" />
      <path
         id="path3991"
         d="m 196.98,94.232 c 5.5701,-14.289 38.735,-4.2011 13.132,-11.617 -6.9033,-0.89436 -10.117,6.9407 -13.132,11.617 z m -7.0711,7.0711 c 11.088,5.4888 30.391,16.62 36.469,13.273 -11.701,-5.6293 -23.989,-9.7587 -36.469,-13.273 z m 22.948,16.059 c 22.387,1.2816 25.13,23.827 10.714,37.857 10.998,-17.576 3.0149,-26.116 -10.714,-37.857 z m 229.28,349.29 c 14.476,3.8027 46.073,4.2527 48.571,20 -18.362,-3.8266 -35.569,-3.9445 -48.571,-20 z m -3.5714,-13.571 c 18.571,-7.8571 37.143,-15.714 55.714,-23.571 -21.591,-6.953 -37.754,15.418 -55.714,23.571 z m 35,-55 c -12.271,13.312 -37.313,34.499 -46.076,38.136 14.644,-15.331 29.289,-30.662 43.933,-45.993 l 2.1429,7.8572 z m -17.143,-55.714 c -18.538,16.598 -29.104,40.035 -46.921,57.446 -7.5941,6.8767 -15.494,19.917 -1.2441,7.7324 20.189,-19.056 35.15,-42.941 54.615,-62.791 17.592,-15.882 2.6919,-7.3226 -6.4493,-2.3882 z m -80,-10 c -11.798,17.612 -10.529,40.774 -22.857,58.571 10.288,-21.696 18.499,-45.108 34.286,-63.571 -3.9775,1.1218 -8.2677,2.125 -11.429,5 z m -45,-15 c 0.25414,10.819 -8.2117,50.349 -6.7474,44.457 3.3248,-13.437 19.942,-36.493 20.192,-42.52 -6.4978,4.9308 -8.1604,3.7349 -13.444,-1.9367 z m 106.43,241.43 22.857,-24.286 c 7.4351,20.103 25.934,-11.111 13.571,-20.714 14.387,-20.919 32.574,27.858 36.017,-0.10081 -1.0945,-10.763 -3.0967,-32.195 -11.731,-34.899 10.206,20.515 -8.5522,24.249 -24.877,25.214 -6.5401,18.203 -22.524,31.558 -32.769,49.764 l -2.2335,3.6412 -0.83566,1.3811 z m 72.857,-89.286 c 17.144,8.2885 32.03,32.429 17.058,49.197 -11.713,13.914 -2.4884,-24.197 -7.3318,-31.542 -2.528,-6.2439 -6.0561,-12.029 -9.7262,-17.656 z m -13.571,-49.286 c 7.5391,8.6855 28.605,3.7104 30.134,14.42 -17.924,8.3586 -19.917,28.101 -33.705,40.58 -22.404,-20.785 32.342,-32.745 0.38917,-48.973 -1.367,-2.4382 0.54403,-5.6338 3.1823,-6.0266 z m -15.72,-33.57 c 21.155,-0.0559 2.9529,42.312 19.614,17.597 7.103,-12.191 -8.7356,-21.817 -19.614,-17.597 z m -15,-49.286 c 11.622,0.3721 23.305,-0.54582 34.788,-0.30134 13.023,10.008 3.3767,35.552 1.529,40.569 22.648,-6.6323 18.022,-47.613 -3.1027,-50.268 -13.667,-6.0684 -21.727,8.8441 -33.214,10 z m -58.571,-45 c 5.9524,-9.0476 11.905,-18.095 17.857,-27.143 9.7716,-2.5618 14.42,2.7593 16.664,11.781 6.8472,3.6325 17.832,-0.37188 24.147,6.6578 10.131,2.9972 9.4456,9.9499 5.3432,18.152 -3.408,8.9084 -4.6284,18.338 -6.1547,27.695 l 17.857,-35.714 c 6.8388,-26.271 -22.932,-18.61 -34.298,-31.232 -4.5075,-6.9263 -10.813,-10.914 -19.065,-11.72 -6.8257,0.27797 -10.916,10.204 -16.637,14.381 -10.238,20.714 -20.476,41.429 -30.714,62.143 8.3333,-11.667 16.667,-23.333 25,-35 z m -61.429,20.714 c 2.9581,-16.353 5.7449,-32.662 5.6027,-49.286 6.4235,-10.591 20.297,-15.877 23.459,-29.551 5.996,-2.847 19.538,-1.4271 24.867,4.9083 10.284,10.433 2.9978,28.117 -3.4633,39.644 -4.7145,10.027 -11.485,19.417 -14.051,30.178 11.808,-21.521 27.682,-42.123 30.014,-67.321 -5.8499,-14.197 -30.612,-22.236 -40.15,-8.4216 -8.8965,8.6529 -18.349,17.743 -23.492,28.995 -0.92887,16.952 -1.8577,33.904 -2.7866,50.856 z m -80,-11.429 c 7.4395,-22.511 -13.619,-54.917 16.429,-65 8.7564,-14.084 21.516,-17.013 32.853,-5.5072 29.216,-18.531 39.46,23.54 29.29,44.793 -1.519,11.063 -9.5276,44.444 -6.1268,15.671 -0.40256,-16.74 3.9104,-45.421 -15.855,-51.651 -19.815,4.5335 -45.425,-0.9436 -48.771,27.293 -3.574,11.218 -5.9629,22.786 -7.8184,34.401 z m -87.14,-210.71 c -9.0891,-12.143 -44.567,-0.3588 -17.143,10.714 11.607,9.9869 38.018,9.3372 43.896,17.056 -6.779,-18.777 -43.947,-9.5357 -44.219,-27.919 5.3725,-1.1341 13.149,3.8802 17.466,0.1482 z m 23.571,8.5714 c 3.2715,-16.227 36.295,-5.1643 21.364,4.0499 -6.7549,1.3464 -16.816,1.9749 -21.364,-4.0499 z m 204.28,392.14 c -13.311,21.159 -23.782,43.985 -38.176,64.339 -15.589,19.903 -43.467,18.446 -66.11,17.09 18.859,-12.245 38.905,-25.619 46.85,-47.798 9.5319,-22.842 36.24,-27.547 57.436,-33.63 z m -87.85,-117.86 c 18.742,17.233 37.116,40.577 64.5,42.092 19.65,5.3189 45.083,22.697 42.935,45.162 -5.1986,10.499 -16.113,32.955 -7.8181,8.528 6.644,-30.726 -30.366,-27.261 -49.891,-27.123 -22.358,-0.96511 -37.337,-20.892 -36.869,-42.23 -3.4954,-9.1635 -8.2005,-17.817 -12.857,-26.429 z m -90.714,-55 c 4.5972,19.57 4.408,41.03 11.36,60.316 3.508,8.655 23.999,42.852 11.747,19.533 -10.421,-18.09 -13.905,-39.028 -10.193,-59.528 2.3138,-29.473 39.714,-13.202 49.228,3.251 -15.079,-11.22 -19.952,-34.73 -34.52,-42.906 -9.2368,5.967 -22.376,8.8126 -27.622,19.335 z m -41.429,25 c -8.2399,20.751 -18.68,42.018 -15.714,65 -12.075,24.408 -0.26488,48.81 0.45166,72.829 -6.6907,20.731 2.042,42.609 17.057,57.434 17.785,13.024 21.506,36.89 39.767,49.336 30.221,15.932 65.643,10.092 98.475,12.991 19.241,-4.2041 51.725,-8.6551 52.405,-34.2 -3.4444,-10.291 12.304,-44.138 0.61328,-19.27 -8.4966,17.321 -19.598,38.782 -42.341,36.595 -25.982,3.1141 -53.378,1.182 -78.09,-7.564 -25.155,-9.8752 -6.3595,-39.31 -18.44,-56.871 -10.491,-22.701 -34.324,-35.903 -44.748,-58.313 -0.6623,-27.072 -16.382,-51.498 -13.803,-78.78 0.7371,-13.129 2.3541,-26.197 4.3659,-39.187 z"
         style="fill:#000000;stroke:#9a00ff;stroke-opacity:1"
         inkscape:connector-curvature="0" />
    </g>
  </g>
  <metadata
     id="metadata8">
    <rdf:RDF>
      <cc:Work>
        <dc:format>image/svg+xml</dc:format>
        <dc:type
           rdf:resource="http://purl.org/dc/dcmitype/StillImage" />
        <cc:license
           rdf:resource="http://creativecommons.org/publicdomain/zero/1.0/" />
        <dc:publisher>
          <cc:Agent
             rdf:about="http://openclipart.org/">
            <dc:title>Openclipart</dc:title>
          </cc:Agent>
        </dc:publisher>
        <dc:title>ostrich</dc:title>
        <dc:date>2013-02-12T03:36:52</dc:date>
        <dc:description />
        <dc:source>https://openclipart.org/detail/175053/ostrich-by-artbejo-175053</dc:source>
        <dc:creator>
          <cc:Agent>
            <dc:title>artbejo</dc:title>
          </cc:Agent>
        </dc:creator>
        <dc:subject>
          <rdf:Bag>
            <rdf:li>africa</rdf:li>
            <rdf:li>bird</rdf:li>
            <rdf:li>ostrich</rdf:li>
          </rdf:Bag>
        </dc:subject>
      </cc:Work>
      <cc:License
         rdf:about="http://creativecommons.org/publicdomain/zero/1.0/">
        <cc:permits
           rdf:resource="http://creativecommons.org/ns#Reproduction" />
        <cc:permits
           rdf:resource="http://creativecommons.org/ns#Distribution" />
        <cc:permits
           rdf:resource="http://creativecommons.org/ns#DerivativeWorks" />
      </cc:License>
    </rdf:RDF>
  </metadata>
</svg>
